<?xml version="1.0" standalone="no"?>
<!DOCTYPE svg PUBLIC "-//W3C//DTD SVG 20010904//EN"
 "http://www.w3.org/TR/2001/REC-SVG-20010904/DTD/svg10.dtd">
<svg version="1.0" xmlns="http://www.w3.org/2000/svg"
 width="5000.000000pt" height="5000.000000pt" viewBox="0 0 5000.000000 5000.000000"
 preserveAspectRatio="xMidYMid meet">
<metadata>
Created by potrace 1.14, written by Peter Selinger 2001-2017
</metadata>
<g transform="translate(0.000000,5000.000000) scale(0.100000,-0.100000)"
fill="#000000" stroke="none">
<path d="M21341 43044 c0 -11 3 -14 6 -6 3 7 2 16 -1 19 -3 4 -6 -2 -5 -13z"/>
<path d="M21322 42960 c0 -14 2 -19 5 -12 2 6 2 18 0 25 -3 6 -5 1 -5 -13z"/>
<path d="M21312 42910 c0 -14 2 -19 5 -12 2 6 2 18 0 25 -3 6 -5 1 -5 -13z"/>
<path d="M21301 42864 c0 -11 3 -14 6 -6 3 7 2 16 -1 19 -3 4 -6 -2 -5 -13z"/>
<path d="M21291 42814 c0 -11 3 -14 6 -6 3 7 2 16 -1 19 -3 4 -6 -2 -5 -13z"/>
<path d="M21270 42715 c-7 -36 -10 -68 -8 -70 3 -3 10 25 17 61 6 37 10 68 8
71 -3 2 -10 -26 -17 -62z"/>
<path d="M21252 42610 c0 -14 2 -19 5 -12 2 6 2 18 0 25 -3 6 -5 1 -5 -13z"/>
<path d="M21242 42560 c0 -14 2 -19 5 -12 2 6 2 18 0 25 -3 6 -5 1 -5 -13z"/>
<path d="M21221 42465 c-22 -131 -53 -290 -58 -295 -2 -2 -8 2 -12 9 -7 11
-10 10 -15 -5 -3 -11 -21 -29 -38 -41 -18 -13 -49 -37 -69 -55 -19 -18 -61
-53 -92 -76 -31 -24 -68 -58 -81 -75 -14 -18 -31 -39 -38 -48 -7 -9 -55 -33
-107 -54 -102 -42 -106 -46 -186 -180 -22 -37 -45 -72 -50 -78 -6 -7 -32 -50
-59 -97 -27 -47 -52 -87 -56 -90 -4 -3 -18 -23 -30 -45 -12 -22 -36 -64 -55
-93 -28 -46 -34 -51 -43 -37 -7 13 -11 -8 -16 -76 -10 -128 -15 -173 -26 -249
-5 -36 -14 -119 -20 -185 -6 -66 -12 -133 -14 -150 -2 -16 -7 -70 -11 -120 -4
-49 -10 -99 -12 -110 -3 -11 -7 -58 -9 -105 -7 -127 -9 -133 -43 -127 -25 5
-30 3 -34 -21 -6 -30 -1 -615 6 -677 3 -22 8 -112 12 -200 4 -88 11 -161 16
-163 5 -2 9 -149 9 -328 l0 -324 -25 -6 c-30 -7 -28 37 -25 -435 1 -207 -2
-418 -6 -469 -6 -84 -8 -91 -20 -69 -7 13 -14 31 -14 39 0 8 -9 33 -20 55
l-20 40 4 -55 c2 -30 -3 -95 -11 -145 -11 -69 -13 -138 -9 -295 9 -275 19
-495 30 -637 17 -215 17 -223 -13 -493 -23 -199 -33 -553 -22 -750 6 -107 13
-240 16 -295 22 -458 20 -440 104 -639 39 -93 70 -171 68 -173 -8 -7 -167 381
-162 395 2 7 1 11 -4 8 -18 -11 -434 1036 -638 1604 -339 945 -627 1922 -794
2695 -32 148 -68 314 -89 414 -11 52 -23 97 -27 100 -3 3 -3 -6 1 -22 3 -15 9
-47 13 -72 5 -37 3 -45 -10 -45 -17 0 -82 -50 -167 -129 -30 -28 -60 -51 -66
-51 -10 0 -151 -131 -259 -239 -98 -99 -199 -210 -236 -261 -42 -58 -62 -83
-106 -139 -15 -19 -39 -55 -53 -82 -29 -55 -52 -82 -105 -124 -95 -75 -100
-83 -144 -230 -10 -33 -35 -108 -56 -165 -20 -58 -49 -144 -64 -191 -14 -48
-32 -93 -39 -102 -13 -16 -13 -25 14 -207 5 -31 1 -37 -26 -55 -32 -21 -33
-33 -14 -137 4 -19 0 -29 -14 -37 -16 -8 -33 3 -113 76 -229 208 -291 264
-249 221 25 -25 162 -155 305 -289 569 -532 1182 -1163 1566 -1609 751 -874
1563 -1977 2294 -3120 65 -102 151 -234 190 -295 248 -379 1135 -1875 1111
-1875 -2 0 -23 33 -47 73 -23 39 -63 92 -89 117 -25 25 -65 72 -88 105 -122
173 -228 312 -291 378 -30 32 -62 68 -70 80 -17 25 -33 45 -66 81 -23 25 -165
209 -180 233 -19 31 -40 57 -90 109 -27 29 -106 127 -175 218 -69 91 -130 166
-137 166 -6 0 -14 8 -18 19 -3 10 -17 31 -31 47 -14 16 -33 41 -42 55 -19 29
-58 79 -115 148 -21 25 -48 59 -60 74 -12 15 -31 38 -43 50 -12 12 -26 32 -33
45 -6 12 -18 22 -26 22 -8 0 -15 4 -15 9 0 5 -21 33 -47 62 -26 28 -57 64 -68
79 -18 24 -97 116 -162 188 -13 14 -23 29 -23 33 0 5 -7 9 -15 9 -8 0 -15 4
-15 9 0 5 -16 26 -36 47 -20 22 -43 50 -52 64 -33 51 -182 227 -182 215 0 -3
-24 21 -54 53 -51 55 -302 304 -431 427 -34 33 -121 116 -192 185 -142 138
-243 229 -271 245 -18 10 -51 40 -214 194 -43 41 -88 81 -101 90 -12 8 -70 55
-129 103 -58 48 -108 88 -111 88 -5 0 -84 70 -150 133 -21 21 -60 52 -86 69
-44 31 -115 84 -303 226 -125 94 -127 95 -211 151 -50 33 -88 51 -108 51 -17
0 -51 12 -77 27 -97 56 -316 163 -333 163 -10 0 -24 6 -31 13 -16 15 -242 120
-338 157 -19 7 -40 17 -46 22 -7 5 -27 8 -45 7 -29 -2 -232 65 -316 104 -20 9
-172 5 -308 -8 -16 -2 -61 -5 -100 -9 -176 -15 -203 -18 -251 -28 -50 -10 -51
-11 -79 -77 -105 -245 -172 -376 -207 -405 -114 -93 -105 -80 -183 -251 -20
-44 -59 -126 -87 -182 l-50 -103 -9 -157 c-4 -87 -13 -185 -19 -218 -12 -73
-40 -395 -40 -469 0 -33 -10 -80 -26 -122 -14 -38 -28 -77 -31 -86 -3 -10 -9
-18 -13 -18 -4 0 -11 -51 -15 -112 -4 -62 -9 -126 -11 -143 -4 -30 7 -102 27
-180 10 -40 26 -138 74 -450 24 -158 66 -337 85 -360 4 -5 15 -37 24 -70 9
-33 25 -80 35 -105 11 -25 26 -68 34 -97 l15 -51 -70 24 c-109 37 -91 22 24
-21 1331 -490 2828 -1330 4488 -2519 241 -172 817 -603 825 -617 4 -6 -33 19
-81 55 -67 50 -94 64 -111 60 -14 -4 -23 -2 -23 5 0 8 -16 11 -45 10 -33 -2
-53 3 -75 19 -16 12 -53 27 -82 33 -29 6 -59 16 -67 22 -7 6 -20 12 -29 13 -8
2 -29 9 -46 18 -54 26 -100 44 -128 51 -15 4 -33 14 -40 22 -7 8 -21 19 -33
24 -11 5 -58 31 -105 58 -47 27 -118 66 -157 85 -40 20 -73 41 -73 48 0 6 -3
8 -6 5 -8 -8 -88 33 -154 78 -50 35 -136 78 -162 82 -9 1 -43 18 -76 38 -33
19 -64 35 -68 35 -10 0 -111 47 -154 71 -69 39 -210 108 -210 102 0 -3 -6 -1
-12 5 -7 6 -44 22 -81 36 -38 14 -147 64 -242 111 -94 47 -175 85 -178 85 -3
0 -18 5 -34 12 -31 12 -45 16 -83 22 -37 7 -141 44 -156 57 -8 6 -14 8 -14 4
0 -4 -6 -3 -12 3 -7 6 -31 13 -53 17 -22 4 -52 14 -67 22 -15 7 -30 13 -33 13
-10 0 -25 4 -58 18 -16 7 -34 12 -42 12 -8 0 -17 5 -20 10 -3 6 -16 10 -29 10
-12 0 -26 3 -30 7 -5 6 -59 28 -91 37 -5 2 -22 8 -36 14 -15 6 -46 16 -70 22
-24 6 -51 14 -59 17 -18 7 -37 12 -65 17 -11 2 -63 18 -115 36 -52 17 -99 33
-105 34 -5 2 -17 6 -25 9 -71 27 -160 49 -229 57 -46 5 -91 12 -100 14 -9 3
-27 7 -41 10 -37 6 -183 47 -195 54 -5 3 -16 7 -25 8 -15 2 -297 51 -335 59
-154 30 -332 48 -355 35 -10 -6 -81 -10 -157 -10 -76 0 -174 -4 -218 -10 -44
-5 -163 -14 -263 -19 -118 -7 -189 -14 -199 -22 -8 -7 -36 -16 -61 -20 -238
-35 -211 -23 -482 -205 -139 -93 -261 -183 -275 -201 -6 -8 -8 -41 -4 -81 3
-37 4 -100 2 -141 -3 -66 -7 -81 -38 -125 -19 -28 -38 -71 -44 -96 -32 -152
-32 -152 -16 -250 9 -52 20 -140 25 -195 9 -101 31 -219 48 -266 7 -16 7 -31
0 -43 -11 -20 -14 -228 -3 -245 4 -7 11 -49 16 -94 13 -123 36 -245 53 -281
35 -74 84 -382 66 -416 -5 -10 -10 -44 -10 -74 0 -54 1 -56 33 -64 19 -5 37
-18 44 -33 7 -13 17 -31 23 -39 38 -56 100 -156 100 -163 0 -4 8 -20 19 -35
27 -40 162 -265 191 -320 39 -72 74 -124 111 -163 19 -19 54 -62 79 -94 24
-33 54 -69 65 -81 65 -67 85 -99 79 -127 -5 -22 0 -34 20 -55 14 -15 44 -49
67 -77 23 -27 58 -61 77 -74 57 -39 71 -53 65 -68 -3 -9 22 -40 65 -81 39 -37
94 -90 124 -118 29 -28 94 -83 143 -123 50 -40 102 -82 116 -94 169 -141 175
-147 142 -147 -22 -1 55 -72 134 -125 29 -20 56 -41 60 -48 4 -7 24 -21 43
-31 19 -11 37 -23 40 -26 3 -4 20 -17 38 -28 20 -11 29 -23 23 -26 -6 -4 -11
-11 -11 -16 0 -9 156 -114 244 -165 43 -25 47 -30 32 -41 -13 -9 -14 -13 -4
-18 7 -3 30 -16 50 -28 133 -82 148 -94 148 -115 0 -31 13 -36 125 -50 l100
-12 -105 5 c-142 8 -685 58 -950 89 -602 70 -1214 174 -1741 295 -869 200
-1891 537 -2693 889 -77 33 -141 59 -143 58 -2 -2 47 -27 109 -55 94 -43 112
-55 110 -71 -3 -22 22 -117 37 -135 4 -6 19 -42 31 -81 12 -38 26 -74 30 -80
4 -5 10 -19 13 -30 3 -11 15 -45 26 -75 19 -47 21 -69 16 -157 -5 -113 -10
-93 103 -411 51 -145 64 -167 172 -282 14 -15 52 -62 85 -105 33 -43 69 -88
80 -101 11 -12 32 -38 47 -56 113 -140 147 -180 197 -233 54 -58 111 -152 124
-207 4 -14 33 -57 64 -95 32 -38 65 -77 73 -87 45 -56 199 -176 225 -176 4 0
19 -10 34 -22 15 -13 38 -31 52 -41 137 -98 169 -121 204 -144 22 -14 80 -56
129 -92 63 -47 173 -108 390 -216 228 -114 302 -155 304 -170 6 -29 16 -37 64
-46 75 -14 212 -50 228 -59 8 -6 29 -16 47 -24 23 -10 30 -20 27 -33 -4 -15
14 -24 118 -57 68 -22 137 -45 153 -51 17 -7 77 -24 135 -38 139 -34 232 -60
248 -70 11 -8 67 -24 190 -57 34 -9 42 -15 38 -28 -5 -14 4 -20 47 -29 57 -13
242 -55 325 -75 47 -11 70 -27 40 -28 -32 -1 44 -28 107 -38 39 -6 99 -17 135
-23 36 -6 80 -14 98 -16 23 -4 32 -10 30 -21 -3 -18 -6 -17 202 -54 78 -14
134 -29 133 -35 -2 -7 9 -8 30 -3 152 37 210 50 220 49 18 -1 -139 -42 -443
-114 -1240 -293 -2410 -487 -3375 -560 -110 -8 -256 -19 -325 -25 -312 -24
-913 -45 -1390 -49 -543 -3 -1334 29 -1810 74 -642 61 -984 106 -1494 196
-154 27 -281 47 -283 45 -2 -2 62 -16 142 -31 141 -27 175 -40 175 -71 0 -8 4
-14 8 -14 5 0 14 -19 21 -42 7 -24 17 -50 22 -58 4 -8 19 -33 32 -55 60 -100
97 -168 97 -177 0 -5 29 -37 64 -70 61 -56 65 -63 73 -116 4 -31 8 -61 8 -66
0 -5 14 -23 30 -41 17 -17 41 -46 55 -65 14 -18 30 -38 35 -44 6 -6 31 -38 57
-71 25 -33 64 -76 87 -95 26 -22 48 -55 62 -90 12 -30 30 -66 39 -80 10 -14
20 -34 24 -46 3 -12 16 -26 29 -32 12 -7 31 -18 41 -24 135 -88 216 -138 221
-138 3 0 18 -8 33 -19 15 -10 80 -53 145 -95 64 -42 117 -81 117 -86 0 -6 17
-10 38 -10 20 -1 89 -7 152 -15 63 -8 255 -28 425 -45 171 -17 352 -36 403
-42 l94 -12 -4 -33 -4 -33 191 -2 c236 -3 199 -4 519 17 148 9 293 15 321 13
48 -3 51 -2 47 19 l-4 21 308 -5 c170 -2 315 -6 322 -8 6 -3 12 -13 12 -24 0
-16 10 -20 80 -26 45 -4 173 -4 285 0 113 4 205 5 205 2 0 -3 -94 -71 -210
-151 -115 -81 -210 -149 -210 -152 0 -2 46 27 103 67 741 516 1467 942 2407
1413 840 420 1678 791 2600 1150 151 60 347 136 435 171 323 127 1432 521
1442 512 2 -2 -25 -14 -59 -27 -35 -12 -85 -39 -113 -59 -56 -41 -80 -56 -112
-73 -13 -6 -23 -16 -23 -22 -1 -12 -81 -66 -99 -66 -6 0 -11 -4 -11 -10 0 -5
-17 -18 -38 -29 -21 -11 -50 -31 -63 -45 -13 -14 -28 -26 -33 -26 -6 0 -37
-13 -70 -29 -34 -16 -101 -48 -151 -71 -49 -23 -99 -50 -110 -60 -27 -23 -123
-80 -135 -80 -9 0 -154 -69 -280 -134 -36 -19 -137 -70 -226 -113 -185 -92
-337 -173 -344 -185 -6 -8 -150 -81 -194 -97 -14 -6 -26 -15 -26 -21 0 -5 -5
-10 -11 -10 -6 0 -74 -36 -150 -80 -77 -44 -142 -80 -144 -80 -3 0 -28 -15
-57 -33 -29 -19 -107 -62 -173 -97 -110 -57 -199 -111 -347 -212 -31 -21 -59
-38 -62 -38 -9 0 -99 -62 -147 -102 -26 -21 -50 -38 -53 -38 -8 0 -128 -80
-136 -90 -3 -3 -57 -41 -120 -83 -63 -43 -171 -120 -240 -172 -145 -110 -168
-126 -175 -125 -3 0 -15 -9 -27 -20 -12 -11 -25 -20 -29 -20 -4 0 -14 -6 -21
-12 -7 -7 -29 -24 -48 -38 -19 -13 -39 -28 -45 -32 -5 -5 -28 -22 -50 -39 -22
-16 -86 -74 -141 -127 -56 -53 -108 -101 -115 -107 -67 -48 -138 -103 -159
-122 -14 -13 -28 -23 -31 -23 -3 0 -42 -35 -86 -77 -102 -99 -239 -225 -278
-255 -16 -12 -41 -33 -55 -45 -14 -13 -28 -23 -32 -23 -5 0 -8 -4 -8 -8 0 -5
-38 -48 -85 -96 -59 -60 -85 -94 -85 -111 0 -13 -4 -27 -10 -30 -5 -3 -39 -43
-75 -88 -35 -45 -69 -87 -73 -93 -5 -5 -15 -21 -22 -35 -7 -13 -36 -53 -64
-88 -28 -36 -55 -73 -61 -82 -9 -14 -49 -74 -105 -154 -8 -12 -28 -42 -44 -66
-16 -24 -35 -50 -43 -57 -20 -20 -46 -74 -47 -97 -1 -11 -16 -42 -34 -68 -17
-26 -32 -51 -32 -54 0 -3 -17 -31 -38 -62 -53 -78 -72 -164 -97 -441 -3 -36
-9 -99 -13 -140 -6 -67 -7 -121 -3 -186 1 -14 12 -26 31 -34 17 -7 30 -16 30
-21 0 -4 10 -11 23 -15 37 -11 271 -167 332 -221 57 -51 97 -75 215 -133 69
-34 132 -68 140 -75 31 -27 214 -120 325 -166 44 -18 102 -48 130 -66 27 -18
55 -33 62 -33 7 0 16 -17 19 -39 8 -51 12 -55 64 -70 25 -7 57 -22 72 -32 14
-11 33 -19 42 -19 21 0 126 -52 126 -62 0 -4 -7 -8 -15 -8 -8 0 -15 -4 -15 -9
0 -4 33 -16 73 -25 39 -10 86 -22 102 -26 17 -5 68 -19 115 -30 47 -12 100
-28 118 -37 31 -14 33 -17 27 -49 -4 -24 -2 -34 7 -34 7 0 25 -6 39 -14 24
-12 29 -11 55 9 l27 22 481 -4 c400 -3 492 -1 546 12 36 8 124 23 197 33 129
18 132 18 150 0 20 -20 10 -21 253 17 14 2 49 13 79 25 45 17 59 19 77 10 23
-13 58 -7 174 26 30 9 91 25 135 35 44 11 91 24 105 29 14 5 41 12 60 15 42 7
137 33 165 45 25 11 164 56 227 74 43 12 47 11 50 -4 3 -16 10 -15 88 6 124
35 211 64 245 84 25 13 120 50 132 50 2 0 3 -7 3 -15 0 -12 5 -12 43 1 23 8
49 17 57 21 8 3 76 30 150 58 106 41 136 49 138 38 2 -9 11 -13 20 -10 17 5
148 61 232 99 75 34 88 38 92 26 2 -6 58 47 123 118 131 140 238 251 189 194
-329 -378 -1012 -1090 -1442 -1502 -756 -725 -1345 -1222 -2139 -1807 -84 -62
-153 -115 -153 -117 0 -3 20 9 45 26 l46 31 -7 -28 c-8 -38 -41 -165 -59 -233
-19 -69 -19 -90 1 -90 10 0 14 -6 10 -17 -3 -10 -12 -92 -21 -183 -16 -170
-17 -179 -34 -290 -5 -36 -9 -144 -9 -240 0 -96 -3 -229 -6 -295 -6 -105 -4
-127 13 -175 38 -108 52 -145 66 -175 7 -16 21 -55 31 -85 9 -30 20 -59 25
-65 4 -5 15 -36 24 -68 9 -32 23 -70 31 -85 8 -15 14 -35 14 -46 0 -11 5 -16
14 -13 16 6 135 -43 206 -84 25 -15 90 -43 145 -64 55 -20 119 -46 142 -56 23
-10 86 -33 140 -50 54 -17 106 -35 116 -40 22 -12 270 -78 317 -85 39 -5 179
-30 253 -45 26 -5 75 -9 108 -9 40 0 73 -7 99 -20 37 -19 142 -52 165 -52 6 0
80 12 165 26 407 67 465 75 468 66 2 -5 30 12 63 38 34 26 68 52 78 57 19 11
103 76 111 86 3 3 21 17 41 30 42 28 273 199 328 244 21 17 51 40 67 52 16 12
51 38 79 59 27 20 51 32 52 27 2 -6 10 -19 17 -29 13 -17 16 -16 57 20 114
101 214 194 238 219 14 16 42 46 61 66 19 21 78 85 130 142 52 57 120 130 152
163 31 32 56 62 55 66 -2 8 5 15 178 175 60 55 127 120 149 144 23 23 54 52
70 64 28 20 29 20 42 2 13 -17 17 -15 66 27 29 25 144 135 255 244 111 110
223 215 249 234 25 19 51 40 58 45 48 42 50 42 27 -5 -12 -25 -29 -58 -37 -75
-14 -26 -10 -24 28 15 56 56 73 70 121 95 21 11 69 49 105 85 134 132 575 595
580 610 2 5 33 30 69 56 37 26 74 54 82 62 9 8 41 32 71 54 30 22 73 56 95 76
22 21 62 55 89 77 28 22 64 53 82 70 18 16 47 41 65 55 40 31 92 84 189 191
41 45 123 132 181 193 274 286 240 233 370 578 18 49 34 86 36 84 13 -12 -376
-994 -582 -1471 -454 -1049 -875 -1848 -1410 -2680 -678 -1054 -1384 -2029
-2017 -2788 -56 -66 -96 -123 -92 -129 4 -6 3 -8 -3 -5 -6 4 -73 -66 -150
-156 -77 -89 -159 -183 -182 -209 -24 -27 -41 -48 -38 -48 4 0 177 191 266
294 20 23 43 40 51 38 9 -3 11 1 7 11 -3 9 3 23 16 34 22 18 22 18 4 -3 -18
-21 -17 -22 15 -27 18 -4 66 -9 107 -13 41 -4 86 -13 100 -20 14 -8 55 -14 91
-14 36 0 97 -5 135 -10 39 -5 138 -9 220 -10 126 -1 162 2 222 20 72 21 72 21
131 1 59 -19 61 -19 193 1 186 27 228 35 277 50 27 9 64 12 105 7 108 -11 172
0 246 41 36 20 109 59 161 86 52 27 97 52 100 55 3 3 48 28 100 54 52 26 97
50 100 55 6 9 52 25 63 22 6 -2 105 128 179 236 13 19 31 41 41 50 9 9 17 20
17 24 0 4 19 34 43 67 23 32 49 68 57 81 8 12 26 37 40 56 63 85 177 244 233
327 l45 65 23 -22 24 -23 20 31 c44 71 85 139 85 142 0 3 11 22 25 42 21 32
30 38 53 35 24 -4 30 1 57 54 27 52 33 58 58 55 15 -2 27 1 27 6 0 5 11 7 23
5 21 -4 28 4 58 64 31 62 37 68 62 65 17 -2 27 1 27 10 0 28 16 41 37 29 18
-9 23 -4 46 43 22 45 30 53 49 49 19 -3 28 5 53 51 l29 56 41 -7 c22 -3 42 -7
44 -9 2 -2 15 21 29 51 22 48 29 55 53 55 21 0 29 5 29 18 0 10 5 23 11 29 6
6 17 22 23 35 9 17 19 22 39 20 18 -2 29 4 37 18 7 14 17 19 29 15 13 -4 23 4
37 30 19 35 44 47 44 21 0 -8 3 -17 8 -20 4 -2 0 73 -10 167 -9 95 -28 318
-43 497 -14 179 -27 345 -30 370 -22 208 -42 768 -44 1185 -4 1088 105 2512
294 3835 98 682 280 1761 334 1975 10 39 10 38 4 -10 -9 -70 -6 -104 12 -131
26 -40 48 -154 53 -274 10 -223 6 -339 -14 -484 -9 -61 -17 -154 -18 -206 -2
-52 -8 -149 -14 -215 -19 -200 -33 -1475 -17 -1524 3 -10 7 -72 9 -138 5 -133
14 -282 22 -331 3 -18 7 -69 10 -115 3 -45 7 -109 10 -142 2 -33 6 -94 9 -135
3 -41 9 -111 15 -155 15 -113 18 -143 25 -205 3 -30 8 -75 10 -100 3 -25 9
-101 15 -170 11 -137 17 -185 29 -215 16 -40 33 -112 43 -185 5 -41 13 -79 18
-85 4 -5 11 -50 15 -100 4 -49 13 -119 21 -155 8 -36 28 -126 43 -200 16 -74
36 -162 44 -195 9 -33 18 -78 21 -100 3 -22 14 -69 25 -104 12 -35 21 -69 21
-75 0 -29 23 -88 44 -113 13 -15 44 -82 70 -148 26 -66 60 -147 76 -180 16
-33 45 -98 65 -145 21 -47 50 -113 66 -148 16 -35 29 -69 29 -76 0 -8 7 -19
15 -26 8 -6 17 -21 21 -33 8 -27 51 -93 82 -126 12 -13 32 -43 43 -65 48 -100
103 -193 128 -215 46 -43 222 -181 230 -181 5 0 44 -27 87 -60 44 -33 88 -66
99 -74 30 -23 135 -76 150 -76 7 0 43 14 80 32 105 49 255 81 286 62 5 -3 9
-18 9 -34 0 -15 3 -35 6 -44 5 -14 9 -14 38 1 17 10 51 33 76 53 25 19 65 49
90 65 25 16 72 50 105 76 34 25 70 51 82 57 12 7 27 18 35 25 18 18 121 87
130 87 3 0 42 21 85 46 43 26 92 53 108 60 17 7 45 24 64 38 19 14 41 26 47
26 7 0 17 6 21 14 4 7 24 22 43 32 38 20 43 25 137 110 47 43 71 57 98 60 20
2 47 12 60 23 29 22 105 112 105 123 0 5 10 8 23 8 33 0 64 26 87 71 11 21 29
45 40 51 11 7 20 18 20 23 0 14 58 75 90 96 14 9 47 22 73 30 44 12 47 16 42
40 -3 14 -1 36 5 50 12 27 114 198 129 215 5 6 18 29 29 51 11 22 28 45 36 52
9 8 16 17 16 22 0 5 24 44 52 86 29 43 61 93 71 112 10 18 27 42 38 54 10 11
19 26 19 33 0 6 6 17 14 23 20 16 66 106 111 216 32 80 58 139 127 293 14 32
24 42 43 42 16 0 26 7 31 23 4 12 17 45 30 73 41 91 91 220 99 255 4 19 11 36
15 39 15 10 136 479 185 715 32 156 37 172 42 158 8 -22 33 -14 33 9 0 12 9
54 19 92 11 39 27 125 36 191 26 187 26 187 40 181 12 -4 20 24 30 109 0 6 4
26 8 45 4 19 9 55 11 80 17 174 18 177 34 176 14 -1 19 24 33 174 9 96 17 177
18 179 1 2 8 0 17 -3 14 -5 15 -1 9 26 -4 18 -11 51 -15 73 l-8 40 36 -42 c31
-35 74 -87 152 -187 8 -10 22 -26 30 -35 8 -9 27 -33 42 -53 15 -20 44 -53 64
-75 31 -33 146 -167 194 -227 31 -38 76 -90 113 -127 20 -22 37 -42 37 -45 0
-3 24 -31 54 -62 30 -32 64 -69 76 -84 12 -16 27 -28 35 -28 7 0 21 -13 32
-29 39 -62 149 -178 634 -671 41 -41 117 -113 169 -160 52 -47 116 -105 142
-130 75 -71 111 -103 152 -135 20 -16 56 -47 79 -68 30 -27 51 -37 74 -37 18
0 33 -3 33 -8 0 -4 20 -18 45 -32 25 -14 45 -27 45 -30 0 -3 15 -14 33 -25 17
-10 34 -21 37 -25 12 -14 122 -81 198 -120 45 -23 84 -46 87 -50 3 -5 26 -18
53 -31 26 -12 55 -29 65 -37 19 -17 37 -27 112 -67 28 -15 61 -33 75 -41 14
-7 37 -14 52 -14 23 0 141 -51 188 -80 8 -6 24 -14 35 -19 11 -5 41 -18 65
-29 25 -11 77 -23 115 -26 96 -9 554 -9 587 -1 20 5 37 24 65 74 21 36 45 80
55 96 9 17 24 45 33 63 19 39 77 135 86 142 3 3 11 15 18 28 7 13 38 39 69 59
60 38 122 91 122 105 0 5 5 14 11 21 5 7 31 49 57 95 26 45 73 125 105 176 60
98 59 94 91 301 4 22 13 67 21 100 8 33 22 103 31 155 9 52 22 118 30 145 8
28 22 102 30 165 15 113 52 219 89 257 8 7 17 28 20 46 7 39 22 111 36 175 9
41 4 305 -7 323 -2 3 -10 118 -19 255 -20 332 -21 342 -40 412 -8 34 -20 85
-25 114 -6 29 -19 82 -29 118 -18 64 -41 157 -67 275 -11 52 -11 62 2 76 20
22 13 46 -58 209 -65 148 -73 178 -47 182 17 3 18 6 5 30 -8 14 -19 43 -26 65
-7 21 -18 52 -25 68 -7 17 -23 58 -34 93 -12 34 -25 70 -31 80 -13 25 -80 172
-80 177 0 3 -13 34 -30 68 -16 35 -30 67 -30 71 0 5 -6 22 -14 39 -8 18 -27
61 -41 97 -15 36 -29 71 -32 77 -3 8 2 13 12 13 12 0 15 5 9 23 -3 12 -11 24
-15 25 -5 2 -9 9 -9 16 0 7 -36 83 -80 170 -44 86 -80 159 -80 161 0 2 7 5 15
7 13 3 13 6 0 28 -8 14 -17 32 -21 40 -4 8 -13 29 -21 45 -7 17 -29 57 -48 90
-48 86 -75 135 -75 140 0 3 7 5 16 5 13 0 10 10 -14 52 -86 154 -112 207 -102
213 5 3 10 12 10 19 0 6 -79 72 -175 145 -96 73 -175 136 -175 138 0 3 6 1 13
-4 6 -6 95 -72 197 -149 1689 -1264 2889 -2404 4111 -3904 428 -525 949 -1249
1298 -1802 51 -82 97 -146 101 -143 5 3 12 0 16 -6 4 -8 3 -9 -4 -5 -7 4 -12
4 -12 0 0 -9 100 -174 106 -174 3 0 -3 15 -14 33 -11 17 -32 54 -48 81 l-28
49 33 -6 c29 -6 33 -5 28 12 -4 17 0 19 32 15 20 -3 54 -9 76 -14 187 -41 494
-82 680 -91 99 -4 209 -13 245 -18 133 -20 243 -23 274 -6 17 9 50 20 75 26
25 5 75 21 109 35 35 14 94 31 130 39 37 7 81 18 97 23 17 6 62 20 100 31 65
19 70 22 72 50 3 42 66 196 89 216 6 6 28 62 48 125 20 63 44 122 52 132 9 9
24 55 35 102 10 47 28 109 39 138 24 60 77 289 90 388 5 36 13 92 18 125 5 33
10 109 11 168 1 60 5 116 8 125 3 9 16 45 29 79 33 85 32 116 -10 288 -20 83
-46 191 -57 240 -12 50 -29 124 -39 165 -10 41 -14 77 -10 80 5 3 -10 29 -33
57 -169 208 -246 303 -288 351 -11 13 -39 49 -62 80 -23 31 -50 66 -59 77 -9
11 -53 63 -96 117 -44 53 -98 115 -120 139 l-41 42 21 19 c12 10 25 18 30 18
11 0 -221 252 -278 302 -20 18 -47 42 -59 53 -38 35 -189 170 -205 183 -39 32
-157 141 -191 176 -36 36 -39 37 -55 22 -15 -16 -19 -14 -53 25 -34 39 -154
166 -324 343 -73 75 -75 79 -61 101 14 22 8 29 -214 251 -125 126 -265 270
-310 319 -45 50 -91 99 -102 111 -11 11 -30 34 -42 50 l-23 29 58 -33 c99 -56
105 -53 35 19 -38 38 -68 75 -68 83 0 8 -6 19 -13 23 -8 4 -18 15 -23 25 -14
26 -73 86 -174 178 -121 109 -259 240 -381 360 -99 97 -142 137 -216 202 -24
20 -75 77 -113 125 -141 177 -385 438 -531 567 -24 22 -80 71 -124 110 -146
129 -159 140 -250 228 -49 47 -112 104 -140 126 -27 21 -66 54 -85 73 -27 26
-85 54 -243 118 -114 46 -206 85 -204 87 7 8 507 -199 501 -207 -3 -5 1 -6 9
-3 21 8 649 -259 1208 -514 387 -177 796 -374 1147 -553 161 -82 296 -149 300
-149 4 1 -6 8 -23 18 l-30 16 55 8 c30 4 67 5 81 2 16 -3 31 1 39 11 7 9 28
15 51 15 22 0 39 4 39 9 0 5 10 9 23 9 120 0 146 4 152 22 6 19 50 30 127 30
37 0 50 4 58 20 7 12 21 20 37 20 15 0 37 11 53 29 24 25 38 29 104 36 53 5
76 11 76 20 0 8 17 16 43 20 23 4 47 11 52 15 6 4 26 10 47 14 20 4 38 13 41
20 3 8 29 17 59 21 62 8 118 30 118 45 0 15 41 29 135 47 44 8 112 22 150 29
39 8 124 23 190 34 66 10 134 24 150 29 17 6 71 17 120 26 50 9 113 22 140 30
28 8 72 20 99 27 44 12 48 15 34 29 -14 13 -9 17 51 34 36 10 77 25 91 32 14
7 32 13 41 13 17 0 234 75 260 89 9 6 51 21 94 36 73 24 154 61 165 74 8 9
119 61 132 61 13 0 149 56 258 107 81 37 83 39 364 318 123 123 185 191 175
193 -18 3 -29 70 -35 217 -2 50 -6 100 -9 112 -4 18 0 24 17 27 105 20 148 27
248 42 63 10 110 19 104 21 -6 2 -112 -12 -235 -31 -879 -137 -1977 -243
-3034 -291 -788 -36 -1923 -43 -2340 -15 -77 5 -216 14 -310 20 -160 10 -477
36 -555 45 -19 2 -129 13 -245 25 -115 11 -235 25 -265 30 -30 5 -84 12 -120
15 -86 9 -551 72 -665 90 -49 8 -166 26 -260 41 -235 35 -728 123 -1040 184
-143 28 -308 60 -367 71 -154 28 -720 152 -1003 219 -446 107 -892 218 -1195
298 -102 27 -249 66 -328 87 -78 21 -140 40 -138 42 2 3 48 -7 103 -21 54 -14
118 -25 143 -24 64 3 332 -24 560 -56 52 -8 109 -14 125 -13 17 0 53 -3 80 -6
81 -11 147 -18 195 -22 95 -7 188 -17 260 -26 41 -6 125 -14 185 -19 106 -9
195 -20 320 -40 33 -5 132 -12 221 -14 89 -3 192 -10 230 -15 177 -26 235 -31
370 -31 80 0 209 -7 287 -15 253 -26 255 -26 262 -15 5 8 105 11 349 9 331 -2
791 7 805 15 4 3 79 8 166 11 276 11 622 40 740 60 17 3 77 8 135 10 58 3 119
7 135 9 17 3 109 16 207 29 97 14 180 27 185 30 6 4 36 9 69 12 127 11 238 40
258 67 15 19 54 34 171 62 109 27 208 60 241 81 11 7 49 22 85 33 121 38 304
103 346 123 23 11 45 29 48 39 4 12 45 35 118 65 142 59 209 97 242 138 15 18
60 68 101 112 91 98 228 264 272 327 35 51 34 59 -9 155 -10 24 -19 49 -19 56
0 7 -6 21 -14 32 -7 11 -23 52 -36 90 -12 39 -26 75 -30 80 -16 22 -24 85 -25
205 0 107 -3 132 -22 170 -11 25 -29 70 -38 100 -9 30 -23 69 -31 85 -7 17
-23 62 -34 101 -15 51 -32 82 -59 111 -43 46 -93 107 -319 383 -88 107 -179
215 -201 238 -37 40 -56 74 -104 183 -21 47 -182 239 -221 264 -17 11 -35 24
-41 30 -12 13 -55 41 -105 69 -19 10 -47 28 -61 40 -14 11 -36 29 -50 39 -124
89 -168 120 -189 134 -64 43 -196 138 -200 145 -3 4 -32 19 -65 33 -33 15 -85
40 -115 56 -80 42 -358 179 -386 189 -13 5 -30 25 -38 44 -11 25 -23 37 -43
41 -57 11 -129 27 -148 32 -14 4 3 17 68 49 48 25 87 46 87 48 0 3 -80 -34
-177 -81 -1237 -595 -2505 -1035 -4178 -1449 -391 -97 -973 -227 -988 -220 -7
2 -3 5 9 5 30 1 176 78 199 105 11 13 30 26 43 30 12 4 22 11 22 15 0 4 17 13
38 20 20 8 44 19 52 26 21 18 78 46 102 50 11 3 37 13 57 23 20 10 54 25 76
32 22 7 72 30 110 51 39 21 122 52 185 69 212 59 401 129 461 171 26 18 154
71 314 129 49 18 97 41 108 50 10 10 48 30 85 45 37 16 74 33 82 40 17 13 78
41 165 75 33 13 67 29 75 35 8 6 56 29 107 49 50 21 94 44 97 52 3 8 10 14 16
14 7 0 42 18 80 40 38 22 75 40 83 40 8 0 17 7 21 15 3 8 14 15 24 15 10 0 27
9 37 20 10 11 27 22 39 26 11 4 33 15 47 25 14 10 29 16 33 12 3 -3 6 -2 6 3
0 5 29 25 65 44 36 19 65 40 65 46 0 10 14 19 125 84 62 37 129 82 135 91 3 5
26 18 50 29 25 12 70 37 100 55 30 19 70 42 88 52 17 9 32 20 32 25 0 4 4 8 9
8 18 0 102 62 166 122 34 33 94 79 131 103 135 87 205 139 274 203 30 28 58
52 61 52 3 0 23 16 45 36 21 19 68 56 102 81 78 57 222 192 222 209 0 7 36 57
81 111 44 54 86 106 94 115 7 9 18 25 24 36 6 11 36 51 68 90 163 200 233 303
233 344 0 11 29 63 64 116 36 53 69 110 75 125 21 55 56 341 66 542 l6 120
-52 40 c-29 22 -103 90 -163 151 -93 93 -113 120 -125 160 -33 115 -125 251
-232 344 -34 30 -79 73 -98 94 -20 22 -44 48 -53 58 -10 10 -18 20 -18 21 0 2
-46 52 -102 111 -100 105 -205 196 -240 209 -10 4 -18 11 -18 17 0 18 -129 71
-195 81 -33 5 -91 12 -130 15 -38 4 -74 10 -80 14 -5 4 -48 10 -95 14 -105 8
-224 26 -240 36 -9 6 -8 14 5 33 16 25 15 26 -6 37 -18 10 -26 8 -50 -9 l-28
-21 -103 21 c-57 12 -152 29 -213 39 -60 10 -189 31 -285 47 -149 25 -206 30
-385 32 -191 2 -212 4 -231 22 -18 16 -36 19 -137 19 -64 0 -139 -5 -168 -11
-40 -9 -53 -8 -59 1 -9 14 -47 12 -245 -15 -60 -8 -148 -20 -195 -25 -47 -5
-132 -19 -190 -31 -155 -31 -190 -34 -190 -15 0 18 -24 20 -90 5 -25 -5 -62
-12 -83 -15 -21 -3 -83 -18 -137 -35 -115 -34 -120 -34 -120 -14 0 15 -31 13
-70 -5 -8 -3 -50 -15 -93 -25 -64 -16 -81 -17 -98 -7 -12 8 -33 11 -50 7 -22
-5 -29 -3 -29 8 0 12 -13 11 -77 -8 -174 -51 -243 -76 -256 -93 -7 -9 -69 -71
-138 -137 -69 -66 8 13 171 175 874 874 1672 1541 2520 2107 462 308 1028 644
1508 895 78 41 139 78 135 83 -5 4 -3 5 3 2 6 -4 108 40 225 98 118 57 211
104 207 104 -3 1 -97 -42 -208 -95 l-202 -96 -45 46 c-44 43 -67 56 -346 191
-53 26 -99 50 -101 54 -3 3 -49 8 -103 9 -54 2 -141 9 -193 17 -125 19 -288
34 -486 45 -109 7 -170 14 -190 25 -16 8 -38 15 -49 15 -11 0 -36 10 -55 22
-55 34 -264 47 -390 24 -52 -9 -111 -19 -130 -22 -19 -2 -87 -13 -150 -23 -63
-11 -194 -32 -290 -47 -96 -15 -177 -31 -180 -36 -3 -4 -40 -16 -81 -26 -41
-11 -85 -25 -98 -31 -12 -7 -46 -19 -74 -28 -29 -8 -56 -18 -62 -23 -5 -4 -41
-17 -80 -30 -38 -12 -83 -27 -100 -34 -67 -29 -125 -39 -150 -28 -17 8 -32 8
-47 2 -40 -18 -200 -106 -228 -125 -8 -6 -32 -17 -54 -24 -31 -11 -40 -11 -46
-1 -6 10 -46 -5 -157 -59 -81 -40 -166 -82 -188 -93 -22 -12 -53 -29 -70 -37
-16 -9 -35 -22 -43 -28 -7 -7 -18 -13 -23 -13 -6 0 -30 -13 -54 -30 -24 -16
-54 -34 -68 -39 -13 -5 -48 -25 -78 -44 -84 -53 -141 -79 -153 -67 -19 19 -26
16 -186 -89 -30 -20 -59 -40 -65 -44 -27 -21 -118 -77 -126 -77 -5 0 -9 7 -9
17 0 15 -1 15 -18 0 -10 -10 -23 -17 -28 -17 -6 0 -20 -9 -32 -20 -11 -11 -40
-30 -64 -42 -24 -12 -49 -28 -56 -35 -7 -7 -17 -13 -21 -13 -4 0 -16 -8 -27
-18 -41 -37 -76 -55 -84 -42 -9 15 -32 4 -110 -54 -82 -61 -183 -126 -195
-126 -5 0 -43 -54 -83 -120 -40 -66 -76 -120 -78 -120 -3 0 -3 3 -1 8 3 4 50
81 104 172 704 1170 1470 2249 2202 3100 884 1027 1832 1949 2791 2712 370
294 765 582 1125 821 99 65 185 124 190 129 16 17 -6 4 -225 -141 l-205 -135
-65 2 c-36 2 -83 7 -105 12 -22 6 -103 13 -180 16 -104 5 -151 11 -184 25 -24
11 -68 26 -98 33 -60 16 -46 18 -343 -50 -241 -56 -370 -81 -370 -72 0 9 -16
-2 -95 -66 -44 -36 -166 -133 -200 -161 -81 -64 -252 -204 -269 -220 -6 -6
-21 -18 -33 -26 -12 -9 -44 -34 -70 -56 -64 -55 -125 -106 -141 -118 -8 -5
-27 -23 -43 -38 l-29 -28 -18 30 c-9 17 -19 31 -22 31 -7 -1 -319 -308 -355
-351 -33 -38 -154 -177 -170 -195 -5 -6 -37 -42 -70 -80 -33 -37 -81 -89 -107
-114 -40 -41 -44 -48 -30 -57 18 -12 6 -24 -332 -350 -102 -99 -109 -103 -130
-90 -26 18 -3 39 -330 -289 -138 -137 -269 -265 -292 -282 -22 -18 -60 -50
-84 -72 -24 -22 -45 -38 -48 -36 -2 2 8 23 23 46 14 22 30 53 36 67 8 23 1 19
-43 -23 -29 -28 -66 -59 -83 -70 -16 -10 -36 -23 -44 -29 -23 -16 -152 -147
-336 -340 -93 -98 -212 -222 -263 -274 -51 -53 -102 -109 -114 -126 -11 -16
-45 -50 -75 -75 -102 -83 -116 -95 -136 -115 -12 -11 -32 -27 -45 -36 -13 -9
-99 -89 -192 -178 -92 -89 -182 -174 -200 -189 -18 -15 -68 -70 -112 -122 -45
-52 -88 -102 -97 -110 -9 -9 -47 -50 -84 -93 -38 -42 -88 -97 -110 -120 -23
-24 -58 -61 -77 -83 -119 -136 -145 -162 -153 -157 -6 3 -7 1 -3 -5 3 -6 2
-13 -2 -16 -5 -3 -35 -69 -67 -146 -32 -77 -59 -139 -61 -137 -6 6 177 454
344 843 267 624 480 1082 763 1644 388 772 679 1286 1131 1996 237 372 252
398 152 257 -34 -48 -34 -48 -34 -18 0 17 -7 62 -15 100 -9 39 -24 120 -34
180 -35 200 -52 279 -78 350 -14 39 -32 97 -39 130 -26 118 -84 336 -99 371
-14 34 -193 286 -207 292 -5 2 -8 8 -8 14 0 6 -18 32 -40 58 -22 26 -40 52
-40 57 0 5 -11 20 -24 32 -13 12 -32 38 -42 57 -20 36 -34 44 -34 18 0 -8 -3
-13 -8 -10 -4 2 -52 5 -107 7 -55 1 -108 6 -119 12 -10 5 -75 9 -145 9 -69 -1
-134 2 -145 7 -10 4 -46 4 -80 0 -33 -4 -99 -9 -146 -10 -47 -1 -89 -5 -95 -9
-5 -5 -39 -17 -74 -28 -59 -18 -69 -18 -120 -5 -60 16 -100 13 -215 -17 -39
-10 -100 -23 -135 -29 -35 -6 -81 -19 -103 -31 -33 -17 -57 -20 -162 -20 -106
0 -125 -2 -139 -18 -9 -10 -36 -28 -59 -41 -24 -12 -70 -39 -103 -60 -33 -22
-96 -60 -140 -86 -44 -26 -82 -51 -85 -55 -3 -4 -14 -12 -26 -18 -20 -11 -21
-8 -33 118 -14 140 -28 240 -29 200 -2 -47 43 -481 49 -476 3 3 4 -7 1 -23 -2
-16 3 -114 12 -218 24 -289 44 -605 61 -973 8 -184 18 -391 21 -460 25 -525
25 -1480 -1 -1960 -15 -287 -55 -814 -75 -995 -6 -49 -19 -169 -30 -265 -44
-395 -82 -674 -154 -1145 -24 -156 -71 -435 -81 -485 -3 -14 -12 -65 -20 -115
-9 -49 -27 -151 -41 -225 -127 -685 -296 -1459 -480 -2195 -92 -370 -247 -956
-251 -952 -2 2 6 42 16 88 23 98 28 221 11 264 -8 21 -10 80 -7 199 2 93 1
183 -4 200 -6 20 -4 51 5 91 8 33 22 114 31 180 9 66 23 152 30 190 8 39 17
102 20 140 3 39 8 77 10 85 24 81 70 416 85 615 5 66 14 161 19 210 6 50 13
136 16 193 3 56 7 124 10 150 6 60 14 158 20 247 3 39 8 86 10 105 19 139 26
947 11 1300 -3 74 -7 207 -10 295 -11 326 -14 360 -47 555 -14 83 -17 106 -24
215 -7 128 -23 262 -35 300 -5 17 -9 41 -9 55 0 22 -11 96 -26 179 -3 14 -8
55 -11 91 -3 36 -12 88 -19 115 -7 28 -19 85 -26 128 -9 56 -17 81 -30 88 -10
5 -24 28 -30 52 -7 23 -16 47 -20 52 -3 6 -12 34 -18 64 -6 29 -24 83 -40 120
-16 36 -33 80 -37 96 -4 17 -10 35 -14 40 -5 6 -15 33 -23 60 -33 107 -105
293 -150 385 -7 14 -20 32 -29 40 -10 8 -43 71 -74 140 -49 108 -64 133 -118
185 -81 80 -143 134 -186 163 -19 13 -48 37 -65 53 -49 47 -126 109 -135 109
-5 0 -15 6 -22 13 -7 7 -30 23 -51 36 -38 23 -39 23 -80 6 -102 -41 -271 -66
-376 -54 -54 5 -311 -27 -321 -41 -3 -4 -21 -11 -40 -15 -98 -21 -345 -121
-378 -152 -7 -7 -17 -13 -21 -13 -5 0 -24 -13 -42 -30 -19 -16 -37 -30 -41
-30 -5 0 -17 -9 -28 -20 -16 -16 -25 -18 -46 -10 -22 9 -31 5 -68 -25 -24 -19
-53 -48 -65 -64 -27 -35 -97 -92 -117 -95 -8 -1 -22 -13 -31 -27 -8 -13 -42
-51 -73 -84 -87 -89 -140 -151 -140 -161 0 -5 -16 -20 -35 -33 -19 -13 -35
-27 -35 -32 0 -9 -78 -89 -139 -143 l-33 -30 -22 27 -21 27 -26 -23 c-15 -12
-54 -80 -88 -152 -34 -71 -75 -157 -91 -190 -28 -58 -59 -138 -102 -257 -20
-58 -30 -69 -44 -47 -8 14 -38 -43 -64 -122 -10 -31 -23 -65 -29 -75 -14 -25
-57 -142 -82 -224 -11 -36 -24 -74 -28 -85 -5 -11 -14 -40 -21 -65 -7 -25 -20
-70 -30 -100 -10 -30 -21 -68 -24 -83 -5 -22 -11 -27 -25 -22 -15 5 -21 -1
-26 -27 -8 -37 -32 -113 -45 -143 -4 -11 -18 -60 -30 -110 -12 -49 -25 -97
-30 -106 -4 -8 -16 -51 -25 -95 -10 -43 -21 -83 -26 -88 -5 -6 -9 -21 -9 -34
0 -21 -2 -22 -15 -12 -12 10 -16 10 -19 -1 -17 -53 -50 -140 -65 -169 -10 -19
-23 -46 -28 -60 -10 -26 -28 -65 -82 -182 -17 -37 -31 -70 -31 -73 0 -4 -15
-39 -34 -78 -109 -227 -146 -308 -146 -317 0 -5 -4 -10 -10 -10 -5 0 -10 -6
-10 -14 0 -20 -40 -67 -51 -60 -5 3 -7 15 -4 27 6 22 6 22 -10 2 -9 -11 -21
-39 -27 -62 -10 -41 -29 -55 -44 -32 -9 15 -19 -3 -45 -81 -11 -36 -26 -78
-34 -95 -11 -27 -22 -62 -74 -240 -15 -50 -22 -60 -41 -60 -19 0 -26 -10 -42
-63 l-19 -63 27 -120 c14 -66 24 -122 22 -125 -3 -2 -12 28 -21 68 -9 40 -30
129 -47 198 -90 378 -193 848 -260 1195 -162 839 -245 1424 -320 2250 -9 100
-26 359 -51 780 -16 281 -23 1322 -10 1705 28 850 109 1677 241 2444 17 98 29
184 27 190 -2 6 -9 -20 -16 -59z m6733 -7619 c-14 -37 -28 -65 -30 -63 -2 2 8
33 23 70 14 37 28 65 30 63 2 -2 -8 -34 -23 -70z m-43 -103 c-12 -20 -14 -14
-5 12 4 9 9 14 11 11 3 -2 0 -13 -6 -23z m-20 -50 c-12 -20 -14 -14 -5 12 4 9
9 14 11 11 3 -2 0 -13 -6 -23z m-20 -50 c-12 -20 -14 -14 -5 12 4 9 9 14 11
11 3 -2 0 -13 -6 -23z m-30 -80 c-12 -20 -14 -14 -5 12 4 9 9 14 11 11 3 -2 0
-13 -6 -23z m-7682 -588 c0 -5 -6 1 -14 15 -8 14 -14 30 -14 35 0 6 6 -1 14
-15 8 -14 14 -29 14 -35z m30 -70 c0 -5 -6 1 -14 15 -8 14 -14 30 -14 35 0 6
6 -1 14 -15 8 -14 14 -29 14 -35z m30 -70 c0 -5 -6 1 -14 15 -8 14 -14 30 -14
35 0 6 6 -1 14 -15 8 -14 14 -29 14 -35z m31 -70 c0 -5 -5 -3 -10 5 -5 8 -10
20 -10 25 0 6 5 3 10 -5 5 -8 10 -19 10 -25z m30 -70 c0 -5 -5 -3 -10 5 -5 8
-10 20 -10 25 0 6 5 3 10 -5 5 -8 10 -19 10 -25z m1427 -117 c-3 -8 -6 -5 -6
6 -1 11 2 17 5 13 3 -3 4 -12 1 -19z m21 -73 c0 -16 -2 -15 -8 5 -11 34 -11
60 0 35 5 -11 8 -29 8 -40z m6712 -335 c-6 -11 -13 -20 -16 -20 -2 0 0 9 6 20
6 11 13 20 16 20 2 0 0 -9 -6 -20z m-30 -50 c-6 -11 -13 -20 -16 -20 -2 0 0 9
6 20 6 11 13 20 16 20 2 0 0 -9 -6 -20z m-2001 -2444 c-6 -26 -13 -45 -16 -43
-2 3 1 26 8 51 6 26 13 45 16 43 2 -3 -1 -26 -8 -51z m-22 -78 c-3 -8 -6 -5
-6 6 -1 11 2 17 5 13 3 -3 4 -12 1 -19z m-4177 -548 c6 -11 8 -20 6 -20 -3 0
-10 9 -16 20 -6 11 -8 20 -6 20 3 0 10 -9 16 -20z m40 -70 c6 -11 8 -20 6 -20
-3 0 -10 9 -16 20 -6 11 -8 20 -6 20 3 0 10 -9 16 -20z m2624 -1345 c78 -37
180 -141 198 -202 9 -31 17 -42 28 -38 8 2 7 -1 -4 -8 -113 -73 -144 -98 -185
-147 -27 -32 -57 -76 -67 -99 -22 -46 -61 -58 -71 -21 -18 69 -78 168 -137
225 -60 59 -204 145 -242 145 -8 0 -14 5 -14 12 0 6 2 9 5 6 3 -3 27 16 54 42
96 93 165 120 296 116 64 -2 92 -8 139 -31z m-4283 -172 c13 -16 12 -17 -3 -4
-17 13 -22 21 -14 21 2 0 10 -8 17 -17z m2939 -22 c50 -16 77 -32 118 -71 47
-44 56 -49 70 -38 9 7 1 -7 -19 -32 -86 -107 -139 -233 -139 -330 0 -72 -20
-72 -93 3 -109 109 -237 160 -407 160 -59 0 -87 3 -73 8 13 5 24 20 28 41 8
39 81 152 122 189 37 34 124 78 177 89 56 12 138 5 216 -19z m2625 -131 c139
-71 214 -187 219 -342 1 -21 6 -28 21 -29 11 0 -9 -7 -45 -14 -90 -18 -163
-49 -231 -97 -57 -39 -59 -40 -84 -24 -20 13 -25 25 -25 59 0 135 -57 271
-157 378 -36 38 -59 67 -52 64 8 -3 46 6 84 20 97 35 180 31 270 -15z m-1875
-37 c14 -3 30 -7 35 -8 30 -7 84 -36 110 -59 57 -52 105 -101 105 -108 0 -5 8
-8 18 -8 9 -1 -14 -16 -53 -34 -147 -70 -248 -172 -292 -297 -13 -36 -24 -51
-45 -58 -25 -9 -30 -7 -43 18 -21 41 -99 117 -151 147 -25 15 -77 37 -117 50
-40 13 -67 23 -61 24 6 0 14 17 18 38 8 52 61 149 102 190 38 37 136 92 164
92 11 0 22 5 25 10 4 6 9 9 13 6 4 -2 15 0 26 3 20 8 106 4 146 -6z m1155 -75
c6 -3 24 -9 42 -13 28 -5 156 -65 141 -65 -3 0 17 -23 43 -51 27 -27 49 -56
49 -64 0 -7 4 -15 8 -17 4 -1 17 -26 29 -55 l22 -52 -37 -6 c-145 -21 -245
-62 -324 -134 -49 -44 -56 -47 -95 -43 -37 4 -42 7 -47 35 -18 94 -93 203
-190 275 -34 25 -55 43 -47 41 7 -3 36 17 64 44 77 73 128 96 237 104 36 2 66
6 68 8 5 4 25 1 37 -7z m-565 -274 c66 -26 121 -66 166 -120 37 -46 79 -114
72 -118 -2 -2 -34 -20 -73 -41 -84 -46 -164 -125 -196 -194 -15 -32 -30 -50
-41 -51 -10 0 -18 7 -18 15 0 8 -9 39 -21 70 -43 115 -171 214 -316 244 l-62
14 21 31 c83 119 209 180 353 171 39 -2 90 -12 115 -21z m-1745 -37 c11 -2 37
-7 58 -11 21 -4 54 -18 74 -32 20 -13 40 -24 46 -24 5 0 -22 -33 -61 -74 -47
-50 -82 -99 -108 -152 -37 -75 -39 -83 -42 -193 -2 -64 -8 -120 -12 -125 -5
-5 -31 6 -63 28 -79 55 -162 78 -280 79 -54 0 -94 3 -90 6 5 3 8 49 8 102 0
54 5 106 12 120 6 13 19 40 27 59 25 56 106 136 171 171 91 49 176 64 260 46z
m593 -118 c100 -22 130 -35 204 -88 l77 -55 -53 -56 c-76 -79 -117 -167 -131
-274 -3 -27 -9 -54 -12 -59 -3 -5 -27 16 -55 47 -59 67 -146 112 -238 125 -65
8 -177 0 -237 -18 -31 -9 -32 -8 -23 9 6 11 19 46 29 78 21 70 80 161 128 201
52 43 136 81 201 90 31 5 58 9 60 10 2 0 24 -4 50 -10z m-1354 -20 c31 -12 56
-27 56 -32 0 -6 7 -2 15 9 9 13 7 -2 -7 -46 -29 -88 -31 -252 -4 -329 15 -45
16 -55 5 -67 -12 -11 -22 -10 -64 11 -146 72 -339 66 -510 -17 -22 -10 -33
-13 -25 -6 11 10 15 38 17 109 1 80 6 105 29 155 35 76 66 116 123 158 101 75
254 97 365 55z m3561 -80 c72 -37 111 -70 155 -136 43 -63 61 -111 65 -165 l2
-46 -61 -7 c-93 -11 -176 -40 -240 -85 -83 -58 -93 -52 -98 63 -3 74 -10 103
-32 149 -27 57 -93 133 -156 179 l-34 26 79 32 c74 29 87 31 167 27 73 -4 98
-10 153 -37z m568 -8 c16 -6 39 -11 51 -11 13 0 29 -7 36 -15 7 -8 21 -15 31
-15 11 0 19 -4 19 -9 0 -5 9 -13 20 -16 22 -7 100 -83 100 -98 0 -4 10 -23 23
-40 28 -39 44 -95 46 -161 1 -33 7 -53 19 -63 16 -13 15 -13 -4 -4 -11 5 -57
17 -103 26 -96 20 -172 15 -266 -17 l-60 -20 -40 21 -40 21 3 79 c5 94 -13
167 -64 259 -19 35 -29 60 -22 55 18 -11 30 -11 53 1 19 9 123 23 155 20 8 -1
28 -6 43 -13z m-2058 -41 c39 -11 82 -29 97 -40 15 -11 30 -20 34 -20 12 0
114 -104 114 -117 0 -6 8 -16 18 -22 19 -11 27 -7 -87 -42 -124 -38 -231 -122
-281 -219 -36 -71 -16 -68 33 5 61 94 78 108 198 174 97 53 245 48 360 -13 61
-33 179 -139 179 -162 0 -7 8 -21 18 -33 13 -17 35 -24 92 -32 105 -15 208
-78 254 -157 6 -11 19 -33 28 -49 9 -16 23 -61 32 -99 l14 -69 1 62 c2 128
-62 224 -193 290 l-70 35 24 18 c14 10 26 17 28 15 2 -2 28 8 57 22 100 45
253 37 350 -19 86 -49 102 -63 148 -129 37 -53 51 -84 61 -137 l13 -67 -106 0
c-94 0 -112 -3 -163 -27 -32 -15 -58 -29 -58 -33 0 -3 18 4 39 15 51 25 148
41 181 28 14 -5 26 -9 28 -8 9 5 69 -16 107 -37 65 -36 125 -101 163 -174 28
-56 32 -74 32 -139 -1 -41 -7 -88 -14 -105 -12 -28 -11 -32 11 -56 22 -24 28
-26 59 -16 26 8 51 7 97 -2 160 -33 277 -152 307 -312 13 -67 5 -129 -26 -195
-31 -67 -52 -85 -66 -60 -38 68 -149 147 -203 145 -11 0 1 -7 27 -15 45 -14
83 -44 139 -110 28 -33 68 -133 70 -175 1 -17 3 -19 6 -6 6 22 10 21 58 -4
123 -66 210 -226 194 -360 -12 -105 -87 -225 -175 -280 -19 -11 -33 -28 -33
-37 1 -14 2 -15 6 -1 2 8 18 23 35 33 77 46 140 137 173 249 9 31 19 57 21 57
19 0 100 -55 125 -85 42 -49 60 -80 84 -140 25 -63 27 -78 21 -150 -11 -150
-87 -260 -224 -325 -94 -45 -96 -44 -110 51 -14 96 -49 167 -108 215 l-39 32
-1 -24 c-1 -15 10 -38 28 -57 16 -18 41 -57 56 -87 24 -49 27 -66 27 -160 0
-119 -14 -158 -86 -243 -43 -50 -137 -102 -206 -113 -30 -4 -51 -16 -75 -42
-18 -20 -24 -29 -13 -21 11 9 51 23 89 32 108 26 190 88 265 200 18 26 35 45
39 43 4 -2 16 -22 27 -43 11 -21 22 -40 25 -43 3 -3 13 -21 23 -40 41 -82 38
-219 -7 -308 -30 -59 -99 -138 -139 -159 -77 -40 -183 -57 -249 -40 -37 9 -39
11 -32 41 4 17 7 61 7 98 0 56 -6 79 -32 133 l-33 66 -19 -22 c-23 -26 -23
-32 -5 -67 19 -39 39 -166 31 -203 -11 -50 -45 -121 -78 -163 -35 -44 -120
-102 -163 -111 -59 -12 -150 -14 -181 -3 l-32 12 33 45 c58 80 79 131 84 206
6 101 -34 182 -111 222 -31 15 -31 15 9 -30 118 -134 82 -341 -81 -462 -48
-36 -130 -58 -189 -52 -59 6 -136 28 -136 39 0 5 -5 8 -11 8 -11 0 -129 112
-129 122 0 4 15 2 33 -3 45 -13 125 -13 176 1 53 14 51 20 -4 11 -70 -13 -167
18 -234 75 -35 29 -41 19 -11 -19 14 -17 19 -34 15 -49 -3 -13 -1 -37 5 -53
10 -26 9 -28 -3 -15 -19 19 -31 70 -17 70 17 0 11 16 -30 78 -43 64 -67 89
-77 79 -3 -4 11 -25 32 -48 26 -29 34 -44 25 -49 -9 -6 -10 -16 -2 -41 27 -88
4 -194 -56 -263 l-36 -41 43 40 c23 22 55 60 69 85 l27 45 11 -53 c25 -110
-17 -253 -94 -320 -53 -47 -133 -77 -202 -77 -67 1 -74 2 -148 25 -53 17 -156
121 -165 169 -5 21 -12 31 -25 31 -16 0 -20 -10 -25 -62 -4 -35 -11 -79 -17
-99 -14 -49 -81 -124 -144 -159 -57 -33 -56 -41 2 -11 96 50 165 142 180 242
l9 54 11 -40 c20 -69 56 -111 124 -144 35 -16 84 -33 111 -37 26 -3 49 -10 52
-14 10 -16 -30 -137 -60 -185 -40 -61 -68 -86 -137 -121 -97 -49 -241 -33
-329 37 -21 17 -39 28 -39 24 0 -13 -68 75 -81 104 -11 25 -20 30 -78 39 -36
6 -77 20 -93 32 -15 11 -31 20 -36 20 -35 0 -132 159 -132 217 0 23 -4 32 -11
27 -8 -4 -10 -27 -6 -65 9 -107 78 -188 190 -225 29 -9 54 -18 56 -20 7 -6
-44 -80 -79 -114 -20 -19 -63 -48 -95 -64 -49 -26 -70 -30 -139 -30 -73 -1
-89 3 -150 33 -59 29 -128 85 -161 132 -20 28 -34 69 -41 119 -6 48 -5 50 17
51 17 1 13 3 -13 10 -96 22 -183 110 -221 223 -21 61 -21 106 -2 153 21 49 18
55 -5 11 -53 -99 -32 -216 54 -303 28 -29 58 -55 66 -57 13 -4 12 -8 -4 -26
-49 -56 -219 -75 -321 -36 -34 13 -127 75 -147 97 -10 12 -33 49 -50 82 -26
51 -32 74 -36 154 -5 90 -4 94 14 86 67 -27 127 -45 151 -44 23 0 19 3 -17 13
-77 22 -98 34 -140 77 -53 54 -97 148 -105 225 -8 71 14 135 68 194 l32 35
-37 -34 c-44 -40 -78 -114 -85 -185 -4 -38 1 -69 19 -123 24 -73 24 -73 4 -74
-59 -4 -88 2 -166 38 -65 30 -160 113 -160 140 0 7 -4 13 -9 13 -20 0 -44 128
-39 212 4 82 34 168 58 168 5 0 16 -13 24 -29 31 -59 140 -131 196 -130 21 1
19 3 -10 11 -69 19 -146 93 -188 178 -23 46 -27 68 -27 137 0 74 -12 90 -14
18 -1 -16 -6 -37 -11 -45 -8 -13 -13 -13 -42 3 -18 10 -58 41 -89 70 -74 70
-111 159 -112 268 -1 69 2 84 36 152 26 52 54 91 90 123 29 26 39 38 22 26
-73 -49 -122 -124 -160 -239 -9 -29 -20 -53 -24 -53 -4 0 -21 7 -38 15 -51 25
-111 93 -145 163 -30 60 -33 77 -36 172 -3 97 -2 110 23 165 51 113 142 196
251 228 l52 15 4 -86 c3 -64 11 -100 28 -136 33 -69 110 -143 110 -106 0 6 -9
18 -20 27 -11 10 -20 21 -20 26 0 4 -13 25 -29 45 -56 71 -67 135 -49 281 4
29 -1 40 -28 65 -63 61 -106 175 -104 279 2 108 25 181 80 251 42 55 127 122
166 131 10 2 37 9 59 15 54 15 150 20 185 10 20 -6 32 -4 40 5 8 10 0 15 -34
24 -100 25 -211 7 -315 -50 -29 -17 -54 -29 -55 -27 0 2 -6 13 -13 24 -21 39
-36 143 -31 223 12 215 206 399 423 402 46 0 105 -7 112 -15 3 -3 -11 -24 -31
-48 -77 -90 -125 -232 -111 -327 11 -74 62 -178 79 -160 2 2 -5 38 -15 79 -40
154 -15 290 74 403 27 35 127 117 142 117 3 0 27 10 53 21 67 31 170 34 258 8
38 -11 78 -21 90 -23 11 -1 27 -7 35 -11 12 -8 12 -6 1 8 -23 28 -100 59 -169
67 -60 8 -125 3 -194 -15 -25 -6 -27 -4 -31 32 -15 119 38 279 120 365 77 81
127 109 242 136 39 9 181 5 204 -6 12 -6 42 -18 68 -28 26 -9 61 -27 78 -39
l31 -23 -58 -35 c-169 -103 -251 -234 -241 -386 3 -50 4 -53 18 -36 9 11 10
16 3 11 -17 -10 -17 18 1 69 8 22 16 54 19 70 10 57 70 151 131 206 46 41 153
90 223 102 79 14 192 -1 256 -33 25 -13 68 -42 95 -66 81 -71 102 -54 26 22
-56 57 -133 91 -232 105 -42 6 -78 12 -79 13 -5 4 26 93 47 139 27 58 119 153
177 185 97 52 218 63 328 32z m967 -64 c36 -15 74 -36 84 -47 9 -10 21 -19 26
-19 11 0 67 -62 68 -74 0 -5 8 -18 17 -28 18 -21 43 -83 43 -110 0 -10 5 -18
10 -18 6 0 10 -4 10 -10 0 -5 -21 -10 -47 -10 -125 0 -246 -38 -327 -103 -34
-26 -48 -31 -82 -29 -40 3 -41 4 -58 57 -24 78 -89 145 -188 195 l-80 40 58
60 c31 33 63 60 71 60 7 0 13 5 13 10 0 6 6 10 13 10 6 0 25 7 42 16 80 41
224 41 327 0z m1702 -25 c60 -3 177 -56 223 -100 42 -41 77 -101 101 -176 16
-51 18 -72 10 -135 -4 -41 -10 -81 -13 -87 -2 -7 4 -17 13 -22 23 -14 16 -13
-48 4 -61 16 -204 19 -262 6 -36 -8 -39 -7 -66 27 l-29 35 20 51 c29 76 34
222 9 311 -10 39 -23 79 -27 90 -7 16 -6 18 6 9 8 -6 36 -12 63 -13z m-4294
-331 c19 -6 48 -13 65 -16 16 -3 35 -10 42 -16 7 -6 21 -8 32 -5 17 4 16 -1
-9 -52 -15 -31 -33 -74 -39 -96 -15 -56 -14 -173 3 -228 19 -65 3 -74 -73 -39
-48 23 -69 26 -151 26 -110 -1 -178 -22 -276 -83 l-62 -39 -7 37 c-12 54 -14
201 -3 201 5 0 7 4 4 9 -12 19 38 122 85 174 55 61 119 102 194 122 61 17 148
19 195 5z m3341 -20 c66 -13 122 -41 193 -100 87 -72 150 -220 138 -323 -3
-31 -8 -37 -21 -31 -113 49 -235 60 -333 29 -53 -16 -56 -16 -87 3 -32 20 -33
21 -35 99 -3 96 -33 169 -100 241 -42 44 -58 70 -38 59 4 -2 30 4 57 13 58 20
150 24 226 10z m-3940 -128 c-87 -173 -86 -364 3 -495 29 -42 21 -63 -20 -52
-122 30 -234 23 -344 -24 -39 -16 -68 -26 -65 -21 2 4 -7 36 -21 71 -29 73
-42 197 -26 250 22 71 40 113 51 117 6 2 11 10 11 17 0 16 52 71 100 106 77
55 150 76 248 72 40 -2 74 2 77 7 3 6 8 10 11 10 2 0 -9 -26 -25 -58z m4470
24 c80 -12 182 -82 239 -166 34 -49 45 -77 55 -138 7 -43 10 -95 8 -117 -3
-22 -6 -54 -7 -71 l-1 -32 -35 18 c-91 46 -218 63 -303 39 -34 -9 -39 -8 -60
17 -24 27 -24 28 -6 73 38 103 34 211 -14 331 l-24 59 61 -5 c33 -2 73 -6 87
-8z m594 -311 c56 -11 135 -49 175 -86 19 -17 40 -34 45 -37 15 -10 76 -108
74 -118 -1 -5 3 -22 9 -37 19 -46 23 -157 7 -216 -7 -29 -11 -60 -8 -69 4 -10
-14 2 -39 25 -98 89 -200 133 -323 139 -77 3 -81 5 -102 35 l-22 32 25 36 c35
51 66 161 68 239 1 75 0 74 91 57z m-1012 -46 c125 -24 220 -82 276 -166 38
-57 72 -163 70 -217 -2 -50 -19 -166 -25 -166 -3 0 -27 18 -54 39 -73 58 -133
75 -244 68 -120 -7 -132 2 -105 74 39 101 19 240 -47 326 -18 23 -23 37 -16
42 20 12 82 12 145 0z m-4753 -204 c20 -62 57 -131 91 -169 28 -33 29 -37 16
-57 -13 -18 -27 -22 -89 -25 -138 -6 -272 -65 -376 -167 -29 -29 -50 -44 -46
-34 3 9 1 23 -5 31 -6 7 -8 16 -4 19 3 4 0 7 -7 7 -7 0 -10 3 -7 7 4 3 3 11
-2 17 -4 6 -16 35 -26 65 -25 77 -17 200 19 273 44 90 131 169 215 195 31 10
57 20 59 24 1 3 29 4 62 3 42 -2 60 0 61 9 1 7 7 -26 14 -73 6 -47 18 -104 25
-125z m5277 -28 c15 -8 39 -17 53 -20 33 -9 131 -88 152 -123 57 -97 78 -156
80 -222 1 -84 -8 -139 -30 -184 l-18 -35 -33 38 c-70 84 -189 139 -301 139
-51 0 -60 3 -74 25 -16 24 -16 27 4 52 11 14 30 58 42 96 20 68 21 154 2 238
l-6 26 50 -8 c28 -4 63 -14 79 -22z m1132 -159 c87 -41 179 -146 201 -230 6
-21 10 -73 9 -115 -1 -63 -7 -91 -31 -144 -16 -36 -38 -72 -48 -79 -17 -12
-17 -15 -2 -39 10 -16 -5 -6 -39 26 -76 70 -166 114 -280 137 -20 4 -27 14
-35 48 -9 41 -8 45 33 98 69 91 121 224 124 323 1 18 3 25 5 17 3 -8 31 -27
63 -42z m-5772 -83 c-1 -109 17 -171 68 -245 25 -36 26 -40 10 -63 -13 -21
-25 -25 -86 -29 -107 -8 -197 -56 -292 -158 l-76 -80 -35 59 c-51 83 -64 119
-72 192 -8 83 21 202 61 247 15 17 27 34 27 39 0 27 91 89 177 120 52 18 83
23 142 21 l76 -3 0 -100z m5123 -97 c0 -5 6 -8 13 -8 25 0 93 -44 130 -84 75
-80 112 -198 97 -306 -8 -54 -33 -129 -48 -140 -15 -11 -55 -74 -55 -87 0 -8
-29 18 -64 56 -67 73 -152 126 -224 137 -33 6 -37 10 -46 49 -9 38 -7 45 15
71 48 58 92 165 103 255 l11 85 34 -10 c19 -6 34 -14 34 -18z m-560 -123 c71
-8 210 -123 261 -217 33 -61 34 -66 33 -173 -1 -84 -5 -119 -19 -150 -10 -22
-19 -42 -20 -45 -1 -12 -71 -99 -87 -109 -16 -10 -21 -3 -46 52 -48 105 -123
171 -218 191 -25 6 -32 14 -41 48 -10 38 -9 43 21 83 49 64 69 138 64 245 -3
86 -2 89 17 83 11 -3 27 -7 35 -8z m-5195 -260 c27 -79 62 -131 131 -194 35
-32 64 -65 64 -72 0 -10 -22 -19 -67 -27 -83 -16 -183 -68 -257 -133 -31 -28
-56 -46 -56 -39 0 6 -20 32 -45 58 -25 26 -58 72 -73 102 -24 50 -27 65 -27
165 0 99 3 115 27 166 29 59 129 169 153 169 8 0 15 4 15 9 0 8 23 20 53 27 4
1 9 3 12 4 3 1 9 3 14 4 5 0 13 5 18 9 4 5 11 -38 14 -95 4 -56 14 -125 24
-153z m8712 99 c-3 -3 -12 -4 -19 -1 -8 3 -5 6 6 6 11 1 17 -2 13 -5z m-50
-10 c-3 -3 -12 -4 -19 -1 -8 3 -5 6 6 6 11 1 17 -2 13 -5z m-40 -10 c-3 -3
-12 -4 -19 -1 -8 3 -5 6 6 6 11 1 17 -2 13 -5z m-8002 -63 c-16 -60 -22 -150
-13 -205 15 -101 63 -176 147 -231 23 -16 38 -31 34 -35 -4 -4 -35 -12 -68
-19 -89 -17 -161 -57 -230 -127 -60 -60 -62 -61 -76 -42 -8 11 -20 26 -26 34
-7 7 -13 17 -13 23 0 5 -6 14 -14 18 -7 4 -25 38 -39 74 -22 56 -26 79 -24
155 2 74 7 98 29 144 43 87 110 151 223 210 64 34 78 34 70 1z m5627 -192
c119 -56 198 -184 201 -323 1 -80 -25 -175 -54 -202 -11 -9 -19 -23 -19 -30 0
-7 -13 -24 -30 -37 -16 -14 -30 -32 -30 -39 0 -7 -11 12 -23 42 -57 139 -157
237 -289 285 -52 19 -64 27 -66 47 -2 19 6 30 37 51 61 41 128 116 163 183 25
48 35 60 48 53 8 -4 36 -18 62 -30z m-563 -61 c118 -93 171 -294 114 -428 -29
-67 -34 -76 -82 -132 l-48 -57 -18 66 c-38 138 -144 245 -268 268 -48 9 -49
36 -3 64 80 50 175 186 192 277 l6 30 26 -23 c15 -12 52 -42 81 -65z m-6121
-306 c32 -38 114 -104 160 -128 2 -1 -2 -19 -8 -40 -9 -34 -18 -43 -72 -69
-77 -37 -180 -138 -228 -221 -34 -60 -35 -61 -52 -41 -10 11 -18 17 -18 13 0
-4 -18 14 -41 40 -36 42 -74 110 -95 169 -13 40 -15 119 -4 169 15 62 81 179
116 203 14 10 36 27 47 38 12 11 25 19 30 18 4 -2 7 2 7 7 0 6 7 10 15 10 9 0
18 7 21 15 4 10 19 -11 44 -59 20 -41 56 -97 78 -124z m670 -70 c23 -43 89
-116 129 -142 19 -13 22 -21 17 -52 -6 -32 -15 -42 -70 -78 -93 -60 -155 -140
-199 -254 -14 -36 -20 -43 -29 -33 -6 8 -27 24 -46 37 -42 28 -109 100 -110
118 0 6 -4 12 -8 12 -16 0 -45 126 -43 190 2 85 16 134 54 195 41 68 89 110
167 148 36 17 67 36 69 41 2 5 14 -24 25 -65 12 -41 32 -93 44 -117z m5761
-104 c120 -89 170 -251 121 -392 -33 -96 -144 -209 -217 -222 -15 -3 -33 -11
-39 -19 -8 -11 -14 -2 -28 43 -10 31 -30 78 -44 105 -23 43 -94 117 -135 142
-14 9 -15 16 -6 50 8 33 19 45 61 70 68 41 142 124 184 207 26 51 38 66 47 58
6 -5 32 -24 56 -42z m696 -119 c50 -42 62 -56 79 -94 48 -105 47 -235 -2 -330
-40 -77 -48 -86 -100 -116 -23 -14 -39 -29 -35 -32 3 -4 0 -8 -8 -9 -8 0 -18
-2 -24 -3 -5 -2 -16 -3 -23 -4 -9 -1 -11 -9 -7 -23 3 -13 -11 11 -32 52 -42
84 -155 206 -211 229 -22 9 -31 19 -27 28 3 8 8 26 11 39 4 16 25 34 67 56 80
43 172 130 222 211 29 46 41 60 45 47 3 -9 23 -32 45 -51z m-11442 -126 c-13
-2 -33 -2 -45 0 -13 2 -3 4 22 4 25 0 35 -2 23 -4z m5164 -168 c22 -42 92
-113 134 -136 13 -7 49 -20 79 -30 30 -9 56 -23 58 -31 1 -8 -15 -24 -36 -36
-77 -43 -151 -139 -182 -237 -18 -57 -17 -56 -56 -32 -72 44 -129 110 -175
200 -16 31 -22 64 -24 128 -4 117 19 187 85 262 28 30 50 61 51 69 0 7 11 -16
23 -52 12 -36 32 -83 43 -105z m-627 -25 c59 -92 172 -174 268 -195 27 -5 32
-11 32 -34 0 -22 -10 -35 -41 -57 -65 -45 -129 -123 -170 -208 -22 -44 -39
-73 -39 -64 0 10 -24 30 -57 49 -71 39 -137 107 -170 174 -34 68 -37 87 -37
185 0 76 4 93 36 162 21 44 47 83 62 93 14 9 28 26 32 37 5 16 10 10 29 -36
12 -30 37 -78 55 -106z m5889 -160 c44 -114 36 -224 -25 -340 -25 -47 -84
-110 -104 -110 -5 0 -10 -4 -10 -9 0 -5 -8 -11 -17 -15 -10 -3 -25 -9 -33 -14
-8 -5 -29 -14 -47 -20 l-32 -10 7 32 c4 17 7 69 6 116 0 69 -5 95 -26 140 -30
68 -74 120 -122 145 -20 11 -36 24 -36 30 0 6 30 16 66 23 87 16 150 50 221
117 l58 55 35 -40 c19 -22 46 -67 59 -100z m563 -121 c27 -26 49 -51 48 -54 0
-3 9 -27 20 -53 42 -93 45 -216 6 -289 -40 -76 -156 -176 -218 -188 -12 -3
-27 -11 -33 -18 -7 -10 -10 5 -11 52 -1 159 -77 316 -186 388 -54 36 -47 53
32 70 84 17 177 63 237 117 26 24 50 39 52 34 2 -6 26 -32 53 -59z m-5546 26
c3 -14 24 -52 45 -85 42 -66 107 -114 175 -131 36 -9 43 -15 53 -51 11 -36 10
-42 -8 -62 -11 -11 -32 -48 -48 -81 -22 -49 -28 -78 -31 -157 l-4 -97 -32 6
c-103 21 -211 107 -267 215 -62 120 -28 327 72 442 28 32 37 33 45 1z m-457
-268 c49 -44 128 -84 183 -93 33 -6 37 -10 47 -51 11 -43 10 -46 -19 -79 -62
-71 -100 -181 -100 -294 0 -36 -4 -60 -8 -53 -4 6 -30 19 -57 29 -61 20 -152
89 -187 141 -98 142 -92 344 14 458 15 17 28 36 28 44 0 8 13 -4 28 -25 16
-21 48 -56 71 -77z m-614 -192 c54 -32 106 -51 186 -69 22 -5 29 -14 38 -52
12 -45 11 -47 -22 -84 -72 -79 -119 -192 -136 -325 -4 -38 -9 -58 -10 -43 -1
23 -20 39 -51 43 -18 1 -102 74 -132 113 -61 82 -78 133 -79 236 -1 77 2 101
21 142 13 27 23 56 24 64 1 8 8 14 16 12 8 -2 12 0 8 3 -4 4 -3 16 3 27 8 14
7 24 -2 36 -7 9 7 -2 32 -25 24 -23 71 -58 104 -78z m6120 96 c-4 -14 3 -25
24 -40 16 -11 32 -33 36 -48 3 -15 11 -31 17 -34 14 -9 21 -60 20 -133 0 -48
-8 -73 -37 -130 -68 -131 -157 -185 -308 -187 -49 -1 -85 -6 -89 -13 -4 -6 -8
23 -8 65 0 93 -20 162 -65 230 -33 48 -34 53 -19 70 10 11 38 20 73 25 117 14
233 74 312 163 51 56 52 58 44 32z m-5113 -295 c51 -38 147 -66 222 -66 56 0
64 -3 73 -23 9 -20 5 -36 -25 -96 -32 -65 -36 -81 -36 -154 -1 -45 2 -97 6
-116 6 -26 5 -31 -5 -23 -6 6 -38 15 -70 21 -31 6 -74 22 -94 36 -21 14 -42
25 -48 25 -16 0 -103 87 -119 119 -46 87 -54 239 -18 332 6 15 8 31 4 35 -4 5
11 -7 33 -27 22 -20 57 -48 77 -63z m4566 -52 c-4 -3 5 -31 19 -62 37 -85 36
-176 -4 -264 -17 -37 -37 -74 -45 -83 -30 -35 -135 -113 -163 -120 -68 -19
-158 -26 -166 -13 -4 7 -13 7 -26 -1 -16 -8 -11 9 26 80 46 90 46 91 46 192 0
97 -2 105 -34 165 -19 34 -32 65 -29 67 3 3 19 0 37 -6 19 -7 70 -10 124 -7
73 3 104 10 147 30 53 26 79 34 68 22z m1219 -22 c-17 -19 -11 -38 25 -76 10
-11 18 -28 18 -37 0 -10 4 -20 9 -24 18 -11 6 -187 -16 -236 -28 -63 -89 -128
-140 -151 -24 -10 -43 -23 -43 -29 0 -6 -4 -8 -8 -5 -5 3 -33 -1 -62 -9 -29
-8 -57 -12 -61 -9 -4 2 -10 0 -13 -4 -3 -5 -17 -7 -31 -4 -19 3 -25 0 -26 -14
-1 -11 -5 11 -9 48 -12 98 -46 190 -97 266 -58 85 -53 95 53 104 43 4 110 17
148 30 71 22 191 95 235 142 14 14 27 26 29 26 3 0 -2 -8 -11 -18z m-2638 -32
c0 -10 -3 -8 -9 5 -12 27 -12 43 0 25 5 -8 9 -22 9 -30z m-3644 -196 c76 -36
150 -54 226 -54 41 0 50 -4 68 -29 l21 -29 -25 -44 c-41 -70 -65 -162 -66
-252 -1 -44 -3 -73 -6 -64 -3 11 -13 16 -31 14 -133 -12 -330 144 -362 288
-16 70 -14 174 4 226 12 35 13 47 3 60 -7 8 13 -7 43 -34 30 -27 87 -64 125
-82z m949 61 c66 -28 135 -36 199 -24 50 9 62 8 76 -5 17 -15 17 -19 0 -69
-34 -98 -20 -224 35 -308 l26 -39 -42 -1 c-95 -3 -121 1 -182 30 -77 35 -124
76 -169 144 -56 87 -80 211 -57 295 l11 42 32 -25 c18 -13 50 -31 71 -40z
m7413 59 c-3 -3 -12 -4 -19 -1 -8 3 -5 6 6 6 11 1 17 -2 13 -5z m-3736 -21 c0
-5 3 -17 5 -28 3 -11 8 -56 11 -100 5 -78 4 -84 -30 -151 -41 -81 -88 -127
-172 -169 -50 -25 -72 -29 -135 -29 -86 0 -107 5 -158 36 -20 13 -41 22 -46
20 -5 -2 -5 5 -1 15 45 104 59 214 35 277 -15 41 0 46 68 23 113 -38 252 -7
367 82 41 31 54 37 56 24z m-801 -122 c34 -16 66 -21 132 -21 48 0 90 -5 93
-10 14 -23 12 -154 -3 -194 -43 -113 -129 -186 -248 -211 -63 -13 -78 -13
-130 0 -66 17 -108 36 -143 64 l-24 19 41 25 c140 89 218 227 193 338 -15 63
-14 66 17 36 15 -14 47 -35 72 -46z m1744 -159 c-3 -9 3 -26 13 -37 29 -31 56
-189 40 -235 -2 -8 -11 -35 -18 -59 -18 -59 -76 -121 -151 -162 -56 -30 -72
-33 -143 -34 -59 0 -83 -4 -92 -15 -7 -8 -1 18 13 58 50 145 42 283 -22 401
-20 35 -32 67 -27 72 4 4 37 1 73 -8 77 -18 169 -12 256 16 32 10 60 19 61 20
0 1 -1 -7 -3 -17z m-5021 -103 c64 -21 171 -25 227 -9 31 9 36 7 55 -16 21
-26 21 -26 2 -83 -35 -100 -25 -224 27 -343 11 -27 13 -36 4 -33 -7 2 -42 6
-78 9 -151 11 -270 98 -323 234 -35 89 -26 282 12 266 9 -3 42 -15 74 -25z
m4470 -100 c-7 -7 -8 -24 -2 -50 9 -37 7 -60 -7 -134 -20 -101 -98 -193 -189
-224 -107 -37 -178 -35 -288 8 -16 6 -33 9 -38 5 -12 -7 -12 -4 6 47 24 67 29
184 11 249 -8 30 -11 59 -7 63 4 4 42 -4 84 -18 122 -41 243 -30 367 35 59 30
81 37 63 19z m-3151 -68 c-9 -122 55 -235 170 -300 l49 -29 -73 -29 c-42 -18
-94 -31 -123 -32 -177 -6 -333 105 -383 272 l-19 65 91 4 c101 4 171 30 236
86 19 16 40 28 45 25 7 -2 10 -26 7 -62z m1573 28 c48 -74 178 -127 284 -115
31 4 77 13 104 21 47 14 47 14 43 -8 -3 -12 -8 -40 -11 -62 -10 -58 -27 -86
-95 -151 -77 -74 -132 -95 -245 -93 -81 2 -150 23 -187 56 -10 9 -18 12 -18 8
0 -5 -13 4 -30 20 l-29 28 45 51 c58 66 93 140 101 216 3 33 9 60 12 60 3 0
15 -14 26 -31z m709 -54 c27 -8 83 -15 124 -15 l74 0 -4 -103 c-3 -91 -6 -107
-31 -147 -75 -120 -94 -136 -210 -175 -64 -21 -84 -24 -115 -16 -20 6 -56 12
-78 14 -23 3 -60 17 -83 32 l-41 28 68 66 c97 94 136 176 139 288 1 46 5 88 8
93 3 5 27 -4 53 -21 26 -16 69 -36 96 -44z m-3133 39 c62 -23 200 -23 265 -1
51 18 53 17 85 -2 33 -20 34 -23 34 -88 1 -85 25 -158 76 -226 l39 -52 -47
-13 c-134 -38 -201 -34 -302 16 -98 48 -166 141 -190 260 -11 52 -15 122 -7
122 2 0 23 -7 47 -16z m1623 -138 c19 -123 134 -213 300 -234 l58 -7 -63 -66
c-54 -56 -76 -71 -138 -94 -64 -24 -83 -27 -146 -22 -95 7 -170 42 -229 108
-25 28 -51 63 -59 78 l-14 28 60 29 c74 35 155 113 185 177 12 26 26 47 31 47
5 0 12 -20 15 -44z m-2479 -131 c61 0 121 3 135 7 21 5 30 1 52 -28 l26 -35
-20 -57 c-32 -87 -31 -252 3 -349 14 -40 20 -68 14 -63 -7 6 -35 12 -63 15
-61 6 -102 20 -102 35 0 6 -4 9 -8 6 -5 -3 -18 4 -30 14 -12 11 -26 20 -31 20
-14 0 -111 97 -111 110 0 6 -8 22 -17 37 -10 14 -19 35 -20 46 -2 11 -7 25
-12 31 -9 13 -6 140 5 157 5 8 3 9 -5 4 -8 -5 -7 3 3 23 8 16 12 33 8 37 -4 4
9 3 28 -1 19 -5 85 -9 145 -9z m3142 -189 c29 -14 76 -31 104 -37 33 -7 47
-14 39 -19 -7 -4 -10 -15 -7 -23 3 -8 0 -23 -7 -33 -7 -11 -16 -31 -19 -45 -4
-15 -20 -41 -37 -59 -16 -18 -30 -36 -30 -41 0 -11 -79 -64 -110 -74 -14 -4
-34 -14 -45 -21 -28 -20 -156 -18 -203 2 -20 10 -43 18 -50 20 -33 7 -128 94
-142 129 -6 17 3 25 72 58 94 45 181 127 217 204 13 28 33 55 45 61 18 8 28 2
71 -43 28 -29 74 -65 102 -79z m-1048 62 c24 -79 74 -140 162 -195 41 -25 46
-32 37 -49 -15 -27 -88 -94 -103 -94 -7 0 -15 -6 -18 -13 -3 -7 -47 -24 -99
-37 l-94 -23 -65 20 c-99 30 -160 75 -205 152 -42 71 -48 82 -58 124 -6 25 -4
27 28 27 91 0 238 54 285 104 20 21 34 26 71 26 46 0 47 -1 59 -42z m-613 -46
c6 -4 13 -45 16 -92 6 -129 61 -233 166 -314 30 -24 38 -35 25 -34 -10 0 -45
-12 -78 -26 -80 -34 -159 -35 -242 -2 -69 27 -79 34 -135 91 -52 52 -85 119
-94 186 -4 30 -11 57 -16 60 -4 3 27 11 69 17 83 13 204 65 238 102 19 21 33
24 51 12z m-593 -42 l34 -20 -5 -73 c-5 -87 16 -178 60 -257 17 -30 27 -52 24
-49 -4 4 -28 0 -54 -8 -93 -28 -228 -15 -321 32 -36 19 -96 80 -121 124 -8 14
-19 29 -23 32 -12 8 -35 105 -41 167 -4 52 -4 54 17 48 116 -31 229 -30 322 3
66 24 68 24 108 1z m2612 -48 c83 -92 215 -140 352 -128 61 5 71 3 67 -9 -4
-8 -10 -15 -15 -15 -5 0 -9 -10 -9 -22 0 -13 -7 -34 -15 -48 -8 -14 -18 -32
-22 -40 -13 -27 -58 -77 -101 -112 -29 -23 -117 -48 -171 -48 -84 0 -130 21
-252 115 l-26 19 39 51 c45 59 77 140 85 210 5 58 10 75 19 75 3 0 25 -22 49
-48z m840 -73 c32 -11 90 -23 128 -26 37 -3 64 -9 59 -12 -6 -3 -9 -44 -9 -91
1 -50 -5 -105 -13 -134 -17 -55 -74 -126 -133 -163 -61 -38 -167 -56 -237 -40
-30 6 -108 45 -115 56 -5 9 -11 9 -23 -1 -9 -7 4 11 30 41 95 110 141 232 136
361 -1 41 1 81 5 87 6 9 22 3 60 -22 29 -19 79 -44 112 -56z m590 45 c61 -24
84 -28 180 -27 105 0 152 9 250 49 17 7 18 6 7 -8 -9 -11 -12 -40 -11 -85 3
-78 -25 -183 -48 -183 -8 0 -12 -4 -9 -8 7 -12 -114 -118 -131 -114 -10 2 -12
-1 -7 -10 6 -11 5 -11 -8 0 -12 10 -18 9 -28 -3 -7 -9 -19 -14 -27 -11 -8 3
-12 2 -9 -3 3 -4 -8 -8 -25 -9 -20 0 -27 3 -22 11 4 8 1 7 -9 -1 -13 -11 -28
-10 -83 3 -36 8 -76 20 -88 27 -12 7 -26 11 -31 10 -5 -2 -5 5 -1 15 4 10 10
70 12 133 4 97 2 124 -15 175 -29 86 -24 88 103 39z m-10228 -60 c-3 -3 -12
-4 -19 -1 -8 3 -5 6 6 6 11 1 17 -2 13 -5z m-40 -10 c-3 -3 -12 -4 -19 -1 -8
3 -5 6 6 6 11 1 17 -2 13 -5z m-40 -10 c-3 -3 -12 -4 -19 -1 -8 3 -5 6 6 6 11
1 17 -2 13 -5z m7838 -16 c40 -116 51 -136 109 -193 59 -59 145 -109 207 -122
16 -3 29 -9 29 -12 0 -17 -76 -94 -123 -125 -63 -41 -135 -52 -231 -35 -67 11
-147 54 -176 94 -8 11 -25 31 -38 44 -14 14 -29 40 -34 58 -5 18 -13 31 -19
28 -5 -4 -9 -4 -9 -2 0 2 26 20 58 40 70 43 148 125 182 190 25 48 37 57 45
35z m-7918 -4 c-3 -3 -12 -4 -19 -1 -8 3 -5 6 6 6 11 1 17 -2 13 -5z m18233
-134 c8 -5 11 -10 5 -10 -5 0 -17 5 -25 10 -8 5 -10 10 -5 10 6 0 17 -5 25
-10z m50 -20 c8 -5 11 -10 5 -10 -5 0 -17 5 -25 10 -8 5 -10 10 -5 10 6 0 17
-5 25 -10z m105 -41 c22 -11 29 -16 15 -13 -14 4 -43 15 -65 25 -22 11 -29 16
-15 13 14 -4 43 -15 65 -25z m-10942 -148 c21 -76 86 -171 154 -226 30 -25 50
-45 45 -45 -5 0 -31 -21 -58 -47 -88 -87 -135 -107 -249 -108 -78 0 -98 4
-150 28 -33 15 -79 47 -103 70 -44 44 -102 143 -102 176 0 11 -6 21 -12 24
-13 5 -7 7 95 27 75 15 180 68 241 122 42 37 54 43 86 40 36 -4 38 -6 53 -61z
m1141 41 c9 -26 86 -105 134 -137 22 -15 67 -37 99 -51 32 -13 51 -24 43 -24
-14 0 -33 -49 -44 -118 -3 -13 -12 -32 -20 -41 -9 -10 -16 -22 -16 -27 0 -15
-60 -64 -115 -92 -38 -21 -70 -28 -135 -32 -87 -5 -170 10 -170 33 0 6 -3 8
-6 4 -9 -8 -76 51 -130 115 l-21 24 61 34 c92 50 184 149 226 242 19 43 42 79
50 82 30 8 39 6 44 -12z m-1916 -85 c20 -12 23 -23 27 -89 7 -135 56 -246 156
-352 55 -59 56 -61 30 -62 -27 -2 -45 -6 -74 -19 -23 -10 -93 -10 -137 0 -19
4 -46 9 -60 10 -14 2 -26 4 -27 5 -2 1 -6 3 -10 5 -25 6 -51 22 -76 44 -16 14
-34 25 -39 23 -4 -1 -12 6 -15 15 -4 10 -18 28 -31 40 -14 13 -22 23 -18 23 4
0 0 7 -8 16 -9 8 -16 24 -16 34 0 10 -5 20 -10 22 -6 2 -13 36 -17 76 -5 57
-9 72 -22 73 -9 0 17 9 58 19 89 24 162 57 216 98 47 36 43 35 73 19z m2687
-264 c75 -39 148 -60 245 -69 41 -5 68 -9 60 -11 -9 -2 -22 -25 -30 -51 -18
-64 -34 -89 -99 -149 -50 -47 -68 -58 -93 -54 -5 0 -8 -4 -8 -10 0 -6 -7 -9
-15 -5 -8 3 -15 2 -15 -3 0 -12 -189 -8 -198 4 -9 12 -39 32 -72 46 -24 10
-63 48 -80 79 -7 12 -12 12 -31 -5 -13 -12 -8 0 14 31 57 80 95 171 108 259 7
44 16 83 22 87 6 3 38 -22 71 -55 34 -34 88 -76 121 -94z m-1429 -50 c3 -10
22 -51 41 -92 56 -118 155 -206 301 -268 32 -13 45 -22 30 -18 -19 3 -28 1
-28 -7 0 -26 -90 -108 -118 -108 -10 0 -23 -5 -30 -12 -7 -7 -12 -9 -12 -6 0
4 -15 1 -32 -7 -32 -13 -119 -13 -165 -1 -13 3 -31 8 -42 10 -38 9 -101 47
-101 62 0 8 -5 12 -11 9 -21 -14 -99 104 -99 149 0 17 -5 26 -16 26 -9 0 10
19 42 43 72 53 138 127 170 190 26 49 59 64 70 30z m7385 -990 c13 -16 12 -17
-3 -4 -17 13 -22 21 -14 21 2 0 10 -8 17 -17z m70 -50 c13 -16 12 -17 -3 -4
-17 13 -22 21 -14 21 2 0 10 -8 17 -17z m40 -30 c13 -16 12 -17 -3 -4 -17 13
-22 21 -14 21 2 0 10 -8 17 -17z m40 -30 c13 -16 12 -17 -3 -4 -17 13 -22 21
-14 21 2 0 10 -8 17 -17z m-8524 -1085 c-3 -8 -6 -5 -6 6 -1 11 2 17 5 13 3
-3 4 -12 1 -19z m-10 -50 c-3 -7 -5 -2 -5 12 0 14 2 19 5 13 2 -7 2 -19 0 -25z
m-10 -50 c-3 -8 -6 -5 -6 6 -1 11 2 17 5 13 3 -3 4 -12 1 -19z m-3857 -1372
c0 -2 -8 -10 -17 -17 -16 -13 -17 -12 -4 4 13 16 21 21 21 13z m-60 -69 c0 -2
-17 -19 -37 -38 l-38 -34 34 38 c33 34 41 42 41 34z m-110 -122 c-24 -25 -46
-45 -49 -45 -3 0 15 20 39 45 24 25 46 45 49 45 3 0 -15 -20 -39 -45z m3489
-1444 c-6 -18 -13 -30 -15 -28 -2 2 1 18 7 36 6 18 13 30 15 28 2 -2 -1 -18
-7 -36z m-38 -98 c-12 -20 -14 -14 -5 12 4 9 9 14 11 11 3 -2 0 -13 -6 -23z"/>
<path d="M24533 27101 c78 -20 138 -59 184 -120 18 -23 33 -38 33 -33 0 20
-62 93 -98 116 -42 26 -132 56 -166 55 -12 0 9 -8 47 -18z"/>
<path d="M24909 27013 c-13 -16 -12 -17 4 -4 16 13 21 21 13 21 -2 0 -10 -8
-17 -17z"/>
<path d="M24859 26963 c-13 -16 -12 -17 4 -4 16 13 21 21 13 21 -2 0 -10 -8
-17 -17z"/>
<path d="M23658 26843 c7 -3 16 -2 19 1 4 3 -2 6 -13 5 -11 0 -14 -3 -6 -6z"/>
<path d="M23711 26846 c2 -2 31 -6 64 -9 36 -3 52 -2 40 3 -19 8 -113 14 -104
6z"/>
<path d="M23841 26826 c2 -2 15 -9 29 -15 24 -11 24 -11 6 3 -16 13 -49 24
-35 12z"/>
<path d="M23900 26796 c0 -2 8 -10 18 -17 15 -13 16 -12 3 4 -13 16 -21 21
-21 13z"/>
<path d="M24995 26760 c10 -11 20 -20 23 -20 3 0 -3 9 -13 20 -10 11 -20 20
-23 20 -3 0 3 -9 13 -20z"/>
<path d="M25599 26733 c-13 -16 -12 -17 4 -4 16 13 21 21 13 21 -2 0 -10 -8
-17 -17z"/>
<path d="M25650 26635 c19 -19 36 -35 39 -35 3 0 -10 16 -29 35 -19 19 -36 35
-39 35 -3 0 10 -16 29 -35z"/>
<path d="M25708 26550 c9 -21 18 -35 20 -30 3 9 -25 70 -33 70 -2 0 4 -18 13
-40z"/>
<path d="M25732 26470 c0 -19 2 -27 5 -17 2 9 2 25 0 35 -3 9 -5 1 -5 -18z"/>
<path d="M24360 26361 c0 -11 5 -23 10 -26 6 -4 10 5 10 19 0 14 -4 26 -10 26
-5 0 -10 -9 -10 -19z"/>
<path d="M25000 26370 c0 -5 5 -10 10 -10 6 0 10 5 10 10 0 6 -4 10 -10 10 -5
0 -10 -4 -10 -10z"/>
<path d="M23083 26333 c9 -2 25 -2 35 0 9 3 1 5 -18 5 -19 0 -27 -2 -17 -5z"/>
<path d="M23018 26323 c6 -2 18 -2 25 0 6 3 1 5 -13 5 -14 0 -19 -2 -12 -5z"/>
<path d="M22940 26300 c-8 -5 -10 -10 -5 -10 6 0 17 5 25 10 8 5 11 10 5 10
-5 0 -17 -5 -25 -10z"/>
<path d="M24370 26266 c0 -8 5 -18 10 -21 6 -3 10 1 10 9 0 8 -4 18 -10 21 -5
3 -10 -1 -10 -9z"/>
<path d="M26214 26231 c3 -4 10 -21 16 -36 6 -15 13 -25 16 -22 6 6 -23 67
-32 67 -3 0 -3 -4 0 -9z"/>
<path d="M26258 26095 c2 -38 6 -72 8 -74 8 -8 2 105 -5 124 -5 11 -6 -10 -3
-50z"/>
<path d="M23740 26117 c0 -8 6 -20 14 -26 12 -10 13 -8 9 9 -7 25 -23 37 -23
17z"/>
<path d="M23790 26031 c0 -13 48 -61 61 -61 17 0 7 15 -27 43 -19 16 -34 24
-34 18z"/>
<path d="M26251 25994 c0 -11 3 -14 6 -6 3 7 2 16 -1 19 -3 4 -6 -2 -5 -13z"/>
<path d="M22665 25935 c-4 -25 -3 -66 2 -92 8 -43 9 -39 9 44 -1 51 -2 93 -3
93 -1 0 -5 -20 -8 -45z"/>
<path d="M26226 25933 c-6 -14 -5 -15 5 -6 7 7 10 15 7 18 -3 3 -9 -2 -12 -12z"/>
<path d="M22680 25786 c0 -11 30 -66 36 -66 2 0 -3 15 -12 33 -19 36 -24 44
-24 33z"/>
<path d="M26280 25696 c0 -2 8 -10 18 -17 15 -13 16 -12 3 4 -13 16 -21 21
-21 13z"/>
<path d="M22618 25633 c6 -2 18 -2 25 0 6 3 1 5 -13 5 -14 0 -19 -2 -12 -5z"/>
<path d="M26326 25627 c3 -10 9 -15 12 -12 3 3 0 11 -7 18 -10 9 -11 8 -5 -6z"/>
<path d="M23330 25607 c30 -30 104 -51 81 -23 -7 9 -20 16 -28 16 -8 0 -28 7
-46 16 l-32 16 25 -25z"/>
<path d="M22508 25591 c-25 -16 -49 -35 -54 -43 -4 -7 1 -6 12 4 10 9 39 28
64 42 25 14 40 26 34 26 -5 0 -31 -13 -56 -29z"/>
<path d="M26351 25544 c0 -11 3 -14 6 -6 3 7 2 16 -1 19 -3 4 -6 -2 -5 -13z"/>
<path d="M22613 25420 c0 -25 2 -35 4 -22 2 12 2 32 0 45 -2 12 -4 2 -4 -23z"/>
<path d="M22621 25354 c0 -11 3 -14 6 -6 3 7 2 16 -1 19 -3 4 -6 -2 -5 -13z"/>
<path d="M22648 25285 c6 -11 25 -33 44 -50 l33 -30 -35 40 c-19 22 -39 45
-44 50 -5 6 -4 1 2 -10z"/>
<path d="M26033 25186 c-13 -6 -23 -14 -23 -18 0 -11 10 -9 55 12 33 15 36 18
15 18 -14 0 -35 -5 -47 -12z"/>
<path d="M26373 25193 c9 -2 25 -2 35 0 9 3 1 5 -18 5 -19 0 -27 -2 -17 -5z"/>
<path d="M26470 25174 c47 -20 100 -62 100 -79 0 -7 6 -20 13 -27 17 -17 47
-93 47 -118 0 -11 4 -20 9 -20 15 0 -8 92 -37 144 -21 37 -44 60 -82 84 -30
17 -61 32 -70 32 -8 -1 1 -8 20 -16z"/>
<path d="M23035 25080 c3 -5 26 -10 51 -10 24 0 44 5 44 10 0 6 -23 10 -51 10
-31 0 -48 -4 -44 -10z"/>
<path d="M22421 24884 c0 -11 3 -14 6 -6 3 7 2 16 -1 19 -3 4 -6 -2 -5 -13z"/>
<path d="M26621 24814 c0 -11 3 -14 6 -6 3 7 2 16 -1 19 -3 4 -6 -2 -5 -13z"/>
<path d="M22411 24764 c-3 -73 63 -185 130 -219 47 -25 44 -17 -7 18 -54 35
-97 108 -113 187 -7 37 -9 40 -10 14z"/>
<path d="M25920 24630 c0 -5 25 -10 56 -10 34 0 53 4 49 10 -3 6 -28 10 -56
10 -27 0 -49 -4 -49 -10z"/>
<path d="M23001 24534 c-18 -8 -31 -18 -27 -21 7 -8 66 17 66 28 0 5 -1 9 -2
8 -2 0 -18 -7 -37 -15z"/>
<path d="M26313 24501 c28 -18 35 -28 85 -125 26 -52 34 -132 19 -191 -6 -27
-6 -28 5 -10 8 12 13 55 13 110 0 80 -3 95 -28 137 -25 44 -88 98 -112 98 -5
0 3 -9 18 -19z"/>
<path d="M22559 24403 l-34 -38 38 34 c34 33 42 41 34 41 -2 0 -19 -17 -38
-37z"/>
<path d="M22505 24329 c-9 -17 -15 -33 -13 -35 3 -2 12 12 21 31 21 43 13 47
-8 4z"/>
<path d="M22692 24200 c0 -19 2 -27 5 -17 2 9 2 25 0 35 -3 9 -5 1 -5 -18z"/>
<path d="M25642 24130 c4 -12 98 -53 105 -46 7 7 -53 45 -81 52 -21 5 -27 3
-24 -6z"/>
<path d="M25780 24055 c7 -9 15 -13 17 -11 7 7 -7 26 -19 26 -6 0 -6 -6 2 -15z"/>
<path d="M22765 24010 c10 -11 20 -20 23 -20 3 0 -3 9 -13 20 -10 11 -20 20
-23 20 -3 0 3 -9 13 -20z"/>
<path d="M25830 23971 c0 -6 4 -13 10 -16 6 -3 7 1 4 9 -7 18 -14 21 -14 7z"/>
<path d="M25875 23960 c30 -33 116 -63 180 -63 57 -1 159 25 170 43 3 4 -18 0
-45 -11 -85 -32 -214 -18 -266 29 -11 9 -27 18 -37 18 -17 2 -17 1 -2 -16z"/>
<path d="M25839 23870 c-4 -30 -9 -64 -13 -75 -3 -11 1 -5 9 14 9 18 15 52 13
75 -3 40 -3 39 -9 -14z"/>
<path d="M22758 23863 c7 -3 16 -2 19 1 4 3 -2 6 -13 5 -11 0 -14 -3 -6 -6z"/>
<path d="M25764 23698 l-19 -23 23 19 c21 18 27 26 19 26 -2 0 -12 -10 -23
-22z"/>
<path d="M22981 23690 c-1 -27 46 -114 75 -141 36 -33 76 -59 88 -59 5 0 -12
14 -37 31 -54 35 -82 71 -108 137 -10 26 -18 40 -18 32z"/>
<path d="M25714 23648 l-19 -23 23 19 c12 11 22 21 22 23 0 8 -8 2 -26 -19z"/>
<path d="M25640 23600 c-19 -11 -31 -19 -27 -20 11 0 67 29 67 35 0 7 -1 7
-40 -15z"/>
<path d="M25156 23595 c-9 -26 -7 -32 5 -12 6 10 9 21 6 23 -2 3 -7 -2 -11
-11z"/>
<path d="M24350 23506 c0 -2 8 -10 18 -17 15 -13 16 -12 3 4 -13 16 -21 21
-21 13z"/>
<path d="M24664 23448 c3 -13 6 -27 6 -33 0 -5 4 -4 9 4 10 16 3 51 -11 51 -6
0 -8 -10 -4 -22z"/>
<path d="M24670 23354 c0 -24 4 -34 13 -31 6 2 12 9 11 15 -1 7 -2 21 -2 32
-3 35 -22 21 -22 -16z"/>
<path d="M24041 23351 c-6 -11 -7 -22 -2 -25 5 -3 11 4 14 16 8 30 1 35 -12 9z"/>
<path d="M23143 23333 c9 -2 23 -2 30 0 6 3 -1 5 -18 5 -16 0 -22 -2 -12 -5z"/>
<path d="M23471 23326 c-2 -30 119 -137 153 -136 6 1 -5 9 -25 20 -40 21 -86
62 -111 100 -9 14 -17 21 -17 16z"/>
<path d="M24740 23282 c0 -17 95 -59 145 -66 34 -4 45 -3 35 4 -8 5 -25 10
-37 10 -19 0 -63 18 -125 51 -10 5 -18 5 -18 1z"/>
<path d="M24978 23223 c6 -2 18 -2 25 0 6 3 1 5 -13 5 -14 0 -19 -2 -12 -5z"/>
<path d="M24096 23175 c20 -31 98 -79 116 -72 8 3 7 6 -4 6 -10 1 -42 22 -73
47 -43 34 -52 39 -39 19z"/>
<path d="M23895 23078 l-40 -43 43 40 c39 36 47 45 39 45 -2 0 -21 -19 -42
-42z"/>
<path d="M24238 23093 c7 -3 16 -2 19 1 4 3 -2 6 -13 5 -11 0 -14 -3 -6 -6z"/>
<path d="M27331 41874 c0 -11 3 -14 6 -6 3 7 2 16 -1 19 -3 4 -6 -2 -5 -13z"/>
<path d="M27372 41570 c0 -14 2 -19 5 -12 2 6 2 18 0 25 -3 6 -5 1 -5 -13z"/>
<path d="M27382 41475 c0 -16 2 -22 5 -12 2 9 2 23 0 30 -3 6 -5 -1 -5 -18z"/>
<path d="M27392 41400 c0 -19 3 -60 8 -90 6 -48 7 -50 8 -15 0 22 -3 63 -8 90
-6 40 -7 43 -8 15z"/>
<path d="M35284 40404 c-18 -14 -18 -15 4 -4 12 6 22 13 22 15 0 8 -5 6 -26
-11z"/>
<path d="M35234 40374 c-18 -14 -18 -15 4 -4 12 6 22 13 22 15 0 8 -5 6 -26
-11z"/>
<path d="M35184 40344 c-18 -14 -18 -15 4 -4 12 6 22 13 22 15 0 8 -5 6 -26
-11z"/>
<path d="M35134 40314 c-18 -14 -18 -15 4 -4 12 6 22 13 22 15 0 8 -5 6 -26
-11z"/>
<path d="M35073 40279 c-35 -22 -46 -37 -15 -20 22 13 58 40 52 41 -3 0 -20
-10 -37 -21z"/>
<path d="M34993 40229 c-35 -22 -46 -37 -15 -20 22 13 58 40 52 41 -3 0 -20
-10 -37 -21z"/>
<path d="M34913 40179 c-35 -22 -46 -37 -15 -20 22 13 58 40 52 41 -3 0 -20
-10 -37 -21z"/>
<path d="M18372 39440 c0 -14 2 -19 5 -12 2 6 2 18 0 25 -3 6 -5 1 -5 -13z"/>
<path d="M18381 39394 c0 -11 3 -14 6 -6 3 7 2 16 -1 19 -3 4 -6 -2 -5 -13z"/>
<path d="M18391 39344 c0 -11 3 -14 6 -6 3 7 2 16 -1 19 -3 4 -6 -2 -5 -13z"/>
<path d="M18401 39294 c0 -11 3 -14 6 -6 3 7 2 16 -1 19 -3 4 -6 -2 -5 -13z"/>
<path d="M16490 37477 c0 -2 15 -16 33 -33 l32 -29 -29 33 c-28 30 -36 37 -36
29z"/>
<path d="M16625 37350 c21 -22 41 -40 44 -40 3 0 -13 18 -34 40 -21 22 -41 40
-44 40 -3 0 13 -18 34 -40z"/>
<path d="M9700 35520 c6 -11 13 -20 16 -20 2 0 0 9 -6 20 -6 11 -13 20 -16 20
-2 0 0 -9 6 -20z"/>
<path d="M9770 35410 c6 -11 13 -20 16 -20 2 0 0 9 -6 20 -6 11 -13 20 -16 20
-2 0 0 -9 6 -20z"/>
<path d="M9836 35310 c26 -38 49 -70 51 -70 5 0 -2 12 -49 83 -21 31 -41 57
-43 57 -3 0 16 -31 41 -70z"/>
<path d="M9896 35218 c13 -23 196 -290 265 -388 57 -81 65 -98 56 -115 -6 -11
-10 -55 -8 -98 2 -70 0 -82 -23 -117 -14 -22 -26 -44 -26 -49 0 -5 -7 -14 -15
-21 -10 -8 -15 -30 -15 -64 0 -28 -5 -67 -11 -86 -5 -19 -12 -102 -15 -184 -5
-130 -8 -155 -30 -202 -43 -95 -46 -138 -18 -250 14 -55 31 -128 38 -164 8
-36 22 -94 31 -130 10 -36 26 -101 35 -145 10 -44 21 -91 26 -104 6 -20 4 -23
-9 -18 -9 3 31 -53 90 -126 58 -73 111 -138 117 -146 9 -12 4 -13 -34 -8 -25
4 -94 9 -155 11 l-110 5 85 -9 c47 -5 164 -17 260 -25 460 -42 1129 -145 1612
-248 l107 -23 -142 146 c-593 609 -1120 1218 -1580 1827 -71 95 -133 170 -137
168 -4 -3 -14 3 -21 13 -13 15 -12 16 4 3 9 -7 17 -10 17 -7 0 4 -55 84 -123
179 -68 95 -156 220 -196 280 -40 59 -75 107 -78 107 -2 0 -1 -6 3 -12z"/>
<path d="M34780 34710 c-8 -5 -10 -10 -5 -10 6 0 17 5 25 10 8 5 11 10 5 10
-5 0 -17 -5 -25 -10z"/>
<path d="M34680 34665 c-14 -8 -20 -14 -15 -14 6 0 21 6 35 14 14 8 21 14 15
14 -5 0 -21 -6 -35 -14z"/>
<path d="M9313 32833 c9 -2 25 -2 35 0 9 3 1 5 -18 5 -19 0 -27 -2 -17 -5z"/>
<path d="M9678 32833 c34 -2 90 -2 125 0 34 2 6 3 -63 3 -69 0 -97 -1 -62 -3z"/>
<path d="M9938 32823 c17 -2 47 -2 65 0 17 2 3 4 -33 4 -36 0 -50 -2 -32 -4z"/>
<path d="M39734 30508 l-19 -23 23 19 c12 11 22 21 22 23 0 8 -8 2 -26 -19z"/>
<path d="M39599 30383 l-34 -38 38 34 c34 33 42 41 34 41 -2 0 -19 -17 -38
-37z"/>
<path d="M39519 30313 l-34 -38 38 34 c20 19 37 36 37 38 0 8 -8 0 -41 -34z"/>
<path d="M39425 30233 c-22 -19 -115 -98 -207 -175 -92 -77 -165 -144 -163
-148 3 -5 0 -12 -6 -16 -8 -4 -9 -3 -5 4 4 7 3 12 -2 12 -12 0 -43 -35 -37
-42 3 -3 -3 -11 -12 -19 -16 -13 -17 -12 -4 4 26 34 -1 16 -117 -76 -276 -220
-720 -547 -1059 -781 -62 -43 -113 -78 -113 -79 0 -1 60 1 132 5 227 12 1308
12 1603 0 1123 -47 2277 -196 3158 -407 81 -19 153 -35 160 -34 14 1 -269 73
-357 90 -54 11 -66 19 -132 83 -68 67 -73 75 -81 126 -4 30 -8 59 -8 64 0 5
-11 22 -25 37 -14 15 -36 41 -50 59 -14 18 -32 41 -40 49 -8 9 -34 41 -57 72
-23 30 -62 72 -86 94 -24 22 -50 55 -58 74 -59 144 -88 179 -182 227 -17 9
-34 20 -37 24 -3 4 -20 15 -39 25 -19 9 -39 21 -45 27 -6 5 -28 19 -48 31 -88
51 -213 132 -216 139 -2 4 -8 8 -14 8 -6 0 -26 11 -43 25 -18 13 -35 21 -39
18 -3 -4 -6 1 -6 10 0 13 -9 17 -37 17 -21 1 -90 7 -153 15 -63 8 -254 28
-425 44 -170 17 -334 35 -364 41 -29 5 -69 10 -89 10 -34 0 -35 1 -29 35 l6
35 -212 1 c-117 1 -215 1 -219 0 -4 0 -128 -8 -275 -16 -147 -8 -279 -17 -292
-19 -29 -5 -41 -16 186 178 152 129 193 167 181 166 -2 -1 -21 -17 -43 -37z"/>
<path d="M42208 28863 c7 -3 16 -2 19 1 4 3 -2 6 -13 5 -11 0 -14 -3 -6 -6z"/>
<path d="M42778 28473 c7 -3 16 -2 19 1 4 3 -2 6 -13 5 -11 0 -14 -3 -6 -6z"/>
<path d="M42845 28456 c22 -7 56 -16 75 -19 33 -6 33 -6 -5 7 -22 7 -56 16
-75 19 -33 6 -33 6 5 -7z"/>
<path d="M42968 28423 c7 -3 16 -2 19 1 4 3 -2 6 -13 5 -11 0 -14 -3 -6 -6z"/>
<path d="M43015 28411 c11 -4 36 -11 55 -15 24 -4 29 -3 15 3 -11 4 -36 11
-55 15 -24 4 -29 3 -15 -3z"/>
<path d="M43258 28343 c7 -3 16 -2 19 1 4 3 -2 6 -13 5 -11 0 -14 -3 -6 -6z"/>
<path d="M35678 27679 c-21 -11 -38 -22 -38 -24 0 -3 18 4 40 15 22 11 40 23
40 25 0 7 0 7 -42 -16z"/>
<path d="M10800 26250 c8 -5 20 -10 25 -10 6 0 3 5 -5 10 -8 5 -19 10 -25 10
-5 0 -3 -5 5 -10z"/>
<path d="M10950 26180 c19 -11 40 -19 45 -19 6 0 -6 8 -25 19 -19 11 -39 19
-45 19 -5 0 6 -8 25 -19z"/>
<path d="M42378 22723 c7 -3 16 -2 19 1 4 3 -2 6 -13 5 -11 0 -14 -3 -6 -6z"/>
<path d="M42318 22713 c6 -2 18 -2 25 0 6 3 1 5 -13 5 -14 0 -19 -2 -12 -5z"/>
<path d="M42258 22703 c6 -2 18 -2 25 0 6 3 1 5 -13 5 -14 0 -19 -2 -12 -5z"/>
<path d="M42208 22693 c6 -2 18 -2 25 0 6 3 1 5 -13 5 -14 0 -19 -2 -12 -5z"/>
<path d="M42148 22683 c6 -2 18 -2 25 0 6 3 1 5 -13 5 -14 0 -19 -2 -12 -5z"/>
<path d="M6728 21953 c7 -3 16 -2 19 1 4 3 -2 6 -13 5 -11 0 -14 -3 -6 -6z"/>
<path d="M6808 21933 c6 -2 18 -2 25 0 6 3 1 5 -13 5 -14 0 -19 -2 -12 -5z"/>
<path d="M6858 21923 c7 -3 16 -2 19 1 4 3 -2 6 -13 5 -11 0 -14 -3 -6 -6z"/>
<path d="M6898 21913 c7 -3 16 -2 19 1 4 3 -2 6 -13 5 -11 0 -14 -3 -6 -6z"/>
<path d="M6948 21903 c7 -3 16 -2 19 1 4 3 -2 6 -13 5 -11 0 -14 -3 -6 -6z"/>
<path d="M7025 21885 c28 -7 61 -13 75 -13 14 0 -2 6 -35 14 -76 17 -107 16
-40 -1z"/>
<path d="M7138 21863 c6 -2 18 -2 25 0 6 3 1 5 -13 5 -14 0 -19 -2 -12 -5z"/>
<path d="M38638 20259 c4 -3 86 -53 182 -111 307 -184 635 -393 1198 -764 160
-106 292 -191 292 -189 0 2 -56 42 -125 90 l-125 86 0 64 c0 35 -7 86 -16 112
-21 60 -20 75 1 141 14 41 16 70 11 125 -10 108 -51 321 -71 370 -6 15 0 17
46 19 30 1 -63 5 -206 9 -270 7 -915 36 -1092 48 -56 3 -99 4 -95 0z"/>
<path d="M40173 20193 c48 -2 126 -2 175 0 48 1 8 3 -88 3 -96 0 -136 -2 -87
-3z"/>
<path d="M11725 19714 l-30 -26 33 22 c17 12 32 23 32 26 0 7 -4 5 -35 -22z"/>
<path d="M40324 19181 c4 -6 16 -16 28 -22 15 -8 18 -8 14 0 -4 6 -16 16 -28
22 -15 8 -18 8 -14 0z"/>
<path d="M40410 19126 c0 -2 8 -10 18 -17 15 -13 16 -12 3 4 -13 16 -21 21
-21 13z"/>
<path d="M28784 15208 c11 -35 89 -369 136 -583 70 -316 149 -725 185 -950 9
-55 18 -111 21 -125 20 -106 97 -679 130 -975 42 -377 53 -505 94 -1043 43
-583 48 -1689 10 -2347 -27 -468 -100 -1171 -157 -1505 -3 -19 -3 -32 1 -29 5
5 76 474 76 507 0 7 25 23 55 36 55 25 58 29 130 147 11 18 29 47 40 64 11 17
33 53 50 81 16 27 33 51 37 52 4 2 8 8 8 14 0 5 17 35 38 66 46 70 51 77 85
140 17 33 32 49 41 46 13 -5 17 17 32 211 3 33 9 87 14 120 5 33 12 89 15 125
3 36 15 157 27 270 11 113 22 247 25 298 l5 93 33 -7 33 -6 5 64 c5 72 -1 608
-8 653 -2 17 -7 103 -11 193 -7 152 -8 162 -27 162 -19 0 -19 6 -14 263 4 144
7 285 7 313 0 47 2 52 25 58 14 4 25 12 25 19 0 6 2 199 4 427 3 397 11 570
26 570 4 0 7 -6 8 -12 2 -27 32 -122 41 -131 7 -7 9 3 5 31 -2 23 3 95 12 159
12 87 14 156 10 263 -3 80 -9 217 -12 305 -4 88 -9 165 -12 170 -9 18 23 -18
132 -147 59 -71 109 -128 112 -128 2 0 -55 72 -128 160 -72 88 -135 157 -141
153 -6 -3 -7 -1 -3 5 4 7 -51 87 -128 186 -310 401 -688 942 -1034 1482 -35
55 -61 91 -58 82z"/>
<path d="M37670 14260 c6 -11 13 -20 16 -20 2 0 0 9 -6 20 -6 11 -13 20 -16
20 -2 0 0 -9 6 -20z"/>
<path d="M15373 14194 l-28 -25 33 22 c17 13 32 24 32 26 0 8 -11 1 -37 -23z"/>
<path d="M30295 13110 c10 -11 20 -20 23 -20 3 0 -3 9 -13 20 -10 11 -20 20
-23 20 -3 0 3 -9 13 -20z"/>
<path d="M30340 13056 c0 -2 8 -10 18 -17 15 -13 16 -12 3 4 -13 16 -21 21
-21 13z"/>
<path d="M22757 11125 c3 -44 7 -82 9 -84 7 -8 3 73 -6 119 -6 34 -7 25 -3
-35z"/>
<path d="M22772 11010 c0 -14 2 -19 5 -12 2 6 2 18 0 25 -3 6 -5 1 -5 -13z"/>
<path d="M22781 10914 c0 -11 3 -14 6 -6 3 7 2 16 -1 19 -3 4 -6 -2 -5 -13z"/>
<path d="M18144 8628 l-19 -23 23 19 c21 18 27 26 19 26 -2 0 -12 -10 -23 -22z"/>
<path d="M29180 7550 c-7 -44 -11 -83 -8 -85 3 -3 10 32 17 76 7 45 10 83 8
85 -2 3 -10 -32 -17 -76z"/>
<path d="M29162 7430 c0 -14 2 -19 5 -12 2 6 2 18 0 25 -3 6 -5 1 -5 -13z"/>
<path d="M29151 7374 c0 -11 3 -14 6 -6 3 7 2 16 -1 19 -3 4 -6 -2 -5 -13z"/>
<path d="M29141 7314 c0 -11 3 -14 6 -6 3 7 2 16 -1 19 -3 4 -6 -2 -5 -13z"/>
<path d="M29131 7264 c0 -11 3 -14 6 -6 3 7 2 16 -1 19 -3 4 -6 -2 -5 -13z"/>
<path d="M29121 7225 c-1 -11 -4 -31 -6 -45 l-6 -25 11 25 c6 13 9 33 7 45 -4
19 -4 19 -6 0z"/>
<path d="M29101 7114 c0 -11 3 -14 6 -6 3 7 2 16 -1 19 -3 4 -6 -2 -5 -13z"/>
<path d="M29061 6924 c0 -11 3 -14 6 -6 3 7 2 16 -1 19 -3 4 -6 -2 -5 -13z"/>
</g>
</svg>
